<svg viewBox="0 0 32 32" xmlns="http://www.w3.org/2000/svg"><path fill-rule="evenodd" clip-rule="evenodd" d="M19.326 5.848c.184.228.277.536.465 1.15l4.09 13.438a17.02 17.02 0 0 0-4.89-1.656l-2.664-9a.347.347 0 0 0-.665.001l-2.63 8.995c-1.743.304-3.394.87-4.913 1.658l4.11-13.438c.188-.614.282-.921.466-1.149.162-.2.373-.357.612-.453.271-.109.592-.109 1.235-.109h2.935c.643 0 .965 0 1.236.11.24.096.451.252.613.453Zm.49 15.228c-.675.576-2.02.97-3.57.97-1.904 0-3.499-.593-3.922-1.39-.151.457-.185.98-.185 1.313 0 0-.1 1.64 1.04 2.78 0-.592.48-1.072 1.072-1.072 1.015 0 1.014.885 1.013 1.603v.064a2.62 2.62 0 0 0 1.614 2.419 2.198 2.198 0 0 1-.221-.964c0-1.04.61-1.427 1.32-1.877.564-.358 1.191-.755 1.623-1.553a2.93 2.93 0 0 0 .354-1.4c0-.311-.049-.612-.138-.893Z"/></svg>