<svg width="32" height="32" fill="none" xmlns="http://www.w3.org/2000/svg"><path fill-rule="evenodd" clip-rule="evenodd" d="M17.695 15.255c0 1.08.253 1.962.67 2.664 1.673-.214 3.394-.638 4.958-1.564.5-.287.352-.947-.126-1.171-1.17-.487-2.742-1.63-3.227-3.666-1.313.742-2.275 2.026-2.275 3.737Zm6.845-4.164c-1.264-.47-2.77-.385-4.049.167.402 1.92 1.891 2.99 2.96 3.422.295-.256.754-.444 1.162-.212.879.716.064 1.72-.501 2.038-1.75.982-3.49 1.607-5.396 1.918 1.461 1.804 4.157 2.08 5.824 1.279-.274 1.077-1.245 1.987-2.818 2.289-.03.471.507 1.527.99 1.946-1.085.405-2.338-.145-3.03-.577-.264.373-.38 1.51-.38 2.22-.815 0-1.888-1.178-2.15-1.629-.384.223-1.041 1.377-1.16 2.048-1.03-.552-1.38-1.818-1.345-2.383-.458.321-1.785 1.12-2.399 1.397-.297-.69-.171-1.556 0-2.443-.258.135-2.16.31-2.92.135.384-.434.905-1.409 1.135-1.862-.808-.05-2.239-.561-2.927-1.259.586-.26 1.158-.633 1.793-1.265l-.04-.02c-.805-.428-2.002-1.063-2.289-2.16.755-.053 1.676-.157 2.158-.374-.614-.353-1.622-1.47-1.418-2.81.501.24 1.566.436 2.083.338-.449-.986-.748-1.937-.307-3.25.477.54 1.398 1.047 1.789 1.187-.102-.97.35-2.752.953-3.232.249.554.884 1.45 1.308 1.667.105-.727 1.05-2.437 1.88-2.666 0 .591.332 1.657.599 1.982.621-.643 2.723-1.71 4.381-1.344-.558.402-.877.785-1.025 1.155 1.258 0 3.332.406 5.139 2.298Zm-4.648 2.82c-.406.075-.605-.478-.408-.77-.603.113-.975.776-.73 1.347a.985.985 0 0 0 1.292.51.977.977 0 0 0 .523-1.282.967.967 0 0 0-.406-.458c.103.24.02.6-.271.653Z" fill="#000"/></svg>