<svg width="32" height="32" fill="none" xmlns="http://www.w3.org/2000/svg"><path d="M7.429 21.713H6V6h1.429v15.713Zm2.857 0H8.857V6h1.43l-.001 15.713Zm2.857 0h-1.429V6h1.429v15.713Zm2.857 0h-1.429V6H16v15.713Zm2.857 0H17.43V6h1.428v15.713Zm2.858 0h-1.428V6h1.428v15.713Z" fill="#000"/><path d="M11.715 26.001h-1.428V10.288h1.428V26Zm2.856 0h-1.428V10.286h1.428V26Zm2.857 0H16V10.288h1.429V26Zm2.859 0h-1.43V10.286h1.43V26Zm2.856 0h-1.428V10.286h1.428V26ZM26 26h-1.43V10.288H26V26Z" fill="#000"/></svg>