<svg width="32" height="32" fill="none" xmlns="http://www.w3.org/2000/svg"><path d="M16 25c5.523 0 10-3.685 10-8.23 0-2.817-1.714-5.306-4.349-6.782a48.847 48.847 0 0 1-2.616-1.606C17.715 7.527 16.9 7 16 7c-.914 0-1.945.667-3.305 1.547-.767.506-1.55.987-2.347 1.441C7.714 11.464 6 13.953 6 16.771 6 21.315 10.477 25 16 25ZM14.832 9.813c.278-.645.42-1.343.416-2.047 0-.123.168-.159.191-.024.549 2.364-.752 3.535-1.714 3.927-.103.04-.166-.103-.086-.178a4.892 4.892 0 0 0 1.194-1.678Zm1.715-.087a5.001 5.001 0 0 0-.652-1.96v-.012c-.056-.105.072-.224.155-.147 1.635 1.793 1.09 3.454.463 4.29-.068.088-.191-.002-.157-.107.205-.666.27-1.37.191-2.064Zm1.48-.476a4.831 4.831 0 0 0-1.343-1.535v-.011c-.093-.073-.02-.234.095-.186 2.163.923 2.311 2.7 2.049 3.744a.099.099 0 0 1-.04.06.09.09 0 0 1-.128-.022.102.102 0 0 1-.018-.07 5.065 5.065 0 0 0-.615-1.98Zm-4.238.476c-.515.463-1.07.645-1.72.849-.097 0-.162-.066-.13-.153 1.46-.773 1.98-1.402 2.5-2.36 0 0 .129-.1.156.072 0 .258-.29 1.128-.806 1.592Zm4.12 9.544a2.52 2.52 0 0 1-.78 1.32c-.29.293-.667.479-1.072.526a1.796 1.796 0 0 1-1.106-.527 2.523 2.523 0 0 1-.771-1.319.211.211 0 0 1 .053-.168.192.192 0 0 1 .16-.059h3.305a.187.187 0 0 1 .159.06.203.203 0 0 1 .053.167Zm-4.548-1.848a1.523 1.523 0 0 1-1.987-.208 1.702 1.702 0 0 1-.195-2.078c.174-.271.42-.482.708-.606a1.51 1.51 0 0 1 .91-.094c.305.064.586.222.805.452a1.7 1.7 0 0 1 .34 1.795c-.118.299-.32.556-.581.739Zm7.08.004a1.523 1.523 0 0 1-1.985-.215 1.684 1.684 0 0 1-.456-1.16c0-.326.092-.645.266-.916.173-.271.42-.482.708-.606a1.51 1.51 0 0 1 .911-.092c.306.065.587.222.807.454a1.711 1.711 0 0 1 .333 1.798c-.12.3-.323.555-.585.737Z" fill="#000"/></svg>