<svg width="32" height="32" fill="none" xmlns="http://www.w3.org/2000/svg"><path d="M24 16a8 8 0 1 0-16 0c0 .897.324 2.684.6 3.023l-.79.713A9 9 0 1 1 25 16c0 1.358-.3 2.646-.84 3.8l-.66-.8c.28-.258.5-2.034.5-3Z" fill="#000"/><path d="M16 18h6c.837 0 1.5 1 1.5 1l.66.8A9.001 9.001 0 0 1 16 25a9.002 9.002 0 0 1-8.19-5.264l.79-.713S9.2 18 10 18h6Z" fill="#000"/><path d="M21.72 13.272c.335.884.236 2.713.236 4.778h-2.702c0-1.187-.019-2.832-.019-3.05 0-1.5-2.035-2.512-3.198-2.512C14.819 12.488 13 13 13 15c0 .187-.004 1.857-.004 3.04h-2.719c0-.822.007-4.096.17-4.672.693-2.457 2.502-3.695 5.59-3.695 3.087 0 4.998 1.21 5.682 3.6Z" fill="#000"/></svg>