<svg width="32" height="32" fill="none" xmlns="http://www.w3.org/2000/svg"><path d="m19.975 21.689.127-.465c.152-.55.096-1.06-.159-1.436-.234-.345-.624-.548-1.097-.572l-8.966-.12a.186.186 0 0 1-.08-.021.188.188 0 0 1-.061-.057.197.197 0 0 1-.019-.17.253.253 0 0 1 .08-.118.23.23 0 0 1 .128-.05l9.05-.122c1.073-.052 2.234-.97 2.641-2.09l.517-1.422a.35.35 0 0 0 .013-.188C21.564 12.078 19.212 10 16.4 10c-2.591 0-4.792 1.763-5.58 4.214a2.543 2.543 0 0 0-1.861-.543c-1.244.13-2.243 1.186-2.366 2.497a2.92 2.92 0 0 0 .068.977C4.628 17.206 3 18.962 3 21.118c0 .193.014.385.04.575a.185.185 0 0 0 .059.114.17.17 0 0 0 .114.046l16.553.002h.005a.211.211 0 0 0 .128-.048.228.228 0 0 0 .076-.118Zm2.988-6.539c-.084 0-.166.001-.249.006a.123.123 0 0 0-.038.008.125.125 0 0 0-.057.039.152.152 0 0 0-.034.062l-.352 1.284c-.152.552-.095 1.06.158 1.436.235.346.624.548 1.098.572l1.911.12a.176.176 0 0 1 .166.161c.004.03 0 .061-.01.09a.252.252 0 0 1-.08.116.23.23 0 0 1-.128.05l-1.985.122c-1.079.052-2.241.97-2.647 2.09l-.144.396a.115.115 0 0 0 .01.1.106.106 0 0 0 .084.052h6.838a.188.188 0 0 0 .11-.038.19.19 0 0 0 .067-.101c.121-.457.182-.927.182-1.4 0-2.853-2.194-5.166-4.9-5.166Z" fill="#000"/></svg>