<svg width="32" height="32" fill="none" xmlns="http://www.w3.org/2000/svg"><path fill-rule="evenodd" clip-rule="evenodd" d="M15.585 5.62a.25.25 0 0 0-.161 0L6.763 8.49a.263.263 0 0 0-.133.094.271.271 0 0 0-.054.156v5.41c0 5.841 3.45 10.153 8.856 12.236a.209.209 0 0 0 .144 0c5.407-2.082 8.856-6.395 8.856-12.236V8.74a.272.272 0 0 0-.053-.156.263.263 0 0 0-.133-.095L15.585 5.62Zm-.644-1.53c.366-.12.76-.12 1.127 0l8.66 2.87c.37.122.691.36.92.68A1.9 1.9 0 0 1 26 8.74v5.41c0 6.628-3.958 11.458-9.873 13.74a1.864 1.864 0 0 1-1.263 0C8.966 25.582 5 20.752 5 14.15V8.74c0-.396.124-.78.352-1.1.229-.32.55-.558.92-.68l8.669-2.87Zm1.61 11.883c.315-.185.578-.45.762-.77.185-.32.284-.683.289-1.053a2.182 2.182 0 0 0-.565-1.603 2.103 2.103 0 0 0-.698-.5 2.066 2.066 0 0 0-2.367.5 2.182 2.182 0 0 0-.565 1.603c0 .375.097.743.282 1.068a2.1 2.1 0 0 0 .769.78v2.965a1.092 1.092 0 0 0 .27.819 1.05 1.05 0 0 0 .776.349 1.033 1.033 0 0 0 .776-.349 1.076 1.076 0 0 0 .27-.819v-2.99Z" fill="#000"/></svg>