<svg width="32" height="32" fill="none" xmlns="http://www.w3.org/2000/svg"><path d="M15.526 5C9.174 5 4 10.128 4 16.385v.05l1.947 1.13h.05a5.752 5.752 0 0 1 4.201-.873c1.025.205 1.998.667 2.766 1.385l.359.308.205-.41c.205-.41.41-.77.614-1.129.103-.154.205-.256.308-.41l.205-.256-.256-.206a8.382 8.382 0 0 0-3.74-1.743c-1.332-.257-2.663-.205-3.893.205.922-4.051 4.508-6.923 8.76-6.923 2.407 0 4.661.923 6.352 2.615a8.423 8.423 0 0 1 2.407 4.308c-.768-.256-1.588-.36-2.407-.36h-.154c-.308 0-.615.052-.973.052h-.052c-.102 0-.256.052-.358.052-.205.05-.359.05-.564.102l-.153.051-.461.154h-.052c-.358.103-.666.257-1.024.41a2.068 2.068 0 0 0-.461.257h-.051c-.769.461-1.486 1.026-2.05 1.743l-.05.103c-.154.205-.257.359-.36.462-.102.102-.153.256-.255.41l-.051.102c-.103.154-.154.308-.205.41v.052a6.112 6.112 0 0 0-.41 1.026v.05a8.732 8.732 0 0 0-.41 2.616v.975c0 .102.051.256.051.358.256 1.231.82 2.41 1.69 3.488l.052.051.051-.051c.359-.41 1.178-1.693 1.28-2.462a5.31 5.31 0 0 1-.614-2.461 5.454 5.454 0 0 1 5.174-5.436h.205a5.514 5.514 0 0 1 3.33.974h.05L27 16.436v-.051c0-3.026-1.178-5.898-3.38-8.052C21.467 6.18 18.6 5 15.525 5Z" fill="#000"/></svg>