<svg width="32" height="32" fill="none" xmlns="http://www.w3.org/2000/svg"><path d="m18.332 23.718 5.73-5.72c.211-.211.482-.317.81-.317.328 0 .598.106.81.318.212.212.318.481.318.808 0 .328-.106.597-.318.81l-5.7 5.69a2.313 2.313 0 0 1-.782.52c-.29.115-.578.173-.868.173-.29 0-.579-.058-.868-.173a2.314 2.314 0 0 1-.781-.52l-2.46-2.456a1.094 1.094 0 0 1-.318-.808c0-.328.106-.597.318-.81.213-.211.483-.317.81-.317.329 0 .599.106.81.318l2.49 2.484Zm-8.97-7.51-1.07 3.033c-.097.23-.241.419-.434.564a1.073 1.073 0 0 1-.666.216c-.424 0-.752-.174-.984-.52a1.12 1.12 0 0 1-.115-1.098L10.78 5.838c.097-.25.256-.453.478-.607.222-.154.468-.231.737-.231h.926c.27 0 .517.077.739.231.222.154.38.356.477.607l4.687 12.536c.154.405.11.78-.13 1.127-.242.346-.584.52-1.027.52a1.2 1.2 0 0 1-.724-.232 1.318 1.318 0 0 1-.463-.606l-1.041-2.975H9.362Zm.81-2.196h4.514l-2.199-6.239h-.116l-2.199 6.24Z" fill="#000"/></svg>