<svg width="32" height="32" fill="none" xmlns="http://www.w3.org/2000/svg"><path d="M13.688 13.987c.77 0 1.396.421 1.719 1.156l.025.057 1.293-.45-.028-.068c-.5-1.25-1.653-2.028-3.009-2.028-.953 0-1.728.314-2.368.957-.636.64-.958 1.444-.958 2.392 0 .939.322 1.739.958 2.378.64.644 1.415.957 2.368.957 1.356 0 2.509-.777 3.01-2.026l.027-.068-1.295-.452-.024.06c-.289.722-.931 1.153-1.718 1.153a1.79 1.79 0 0 1-1.348-.57c-.363-.383-.546-.865-.546-1.431 0-.57.18-1.043.546-1.444.358-.38.812-.573 1.348-.573Z" fill="#000"/><path fill-rule="evenodd" clip-rule="evenodd" d="M16.535 7.604c3.076 0 5.869 1.737 7.288 4.531L25 11.506c-1.648-3.247-4.892-5.263-8.465-5.263a9.3 9.3 0 0 0-3.654.743C9.354 8.486 7 12.08 7 16a9.827 9.827 0 0 0 3.54 7.588 9.422 9.422 0 0 0 5.975 2.169h.019c.127 0 .254-.003.38-.009a1.764 1.764 0 0 0 1.55-1.115l.183-.456.136-.34.103-.253 4.331-10.806h-1.433l-1.842 4.781-1.854-4.781H16.57l2.6 6.526-1.611 4.01h-.002l-.323.802a.43.43 0 0 1-.376.273 8.975 8.975 0 0 1-.33.008c-3.678-.002-6.946-2.575-7.912-6.172A8.614 8.614 0 0 1 8.328 16c0-3.443 2.108-6.59 5.247-7.832a8.01 8.01 0 0 1 2.961-.564Z" fill="#000"/></svg>