<svg width="32" height="32" fill="none" xmlns="http://www.w3.org/2000/svg"><path d="M5.966 21.69A10.178 10.178 0 0 1 5 17.348c0-.403.021-.796.068-1.185a10.321 10.321 0 0 1 3.454-6.546 10.562 10.562 0 0 1 7.776-2.586 10.536 10.536 0 0 1 6 2.432 10.336 10.336 0 0 1 3.55 6.105 10.252 10.252 0 0 1 .12 2.567 10.213 10.213 0 0 1-.635 2.851 10.33 10.33 0 0 1-2.084 3.343c-.5.52-1.1.935-1.765 1.222a5.501 5.501 0 0 1-2.11.449 3.837 3.837 0 0 1-1.662-.401 3.778 3.778 0 0 1-1.313-1.082 3.683 3.683 0 0 1-.636-3.226c.089-.33.325-.962.666-1.242a4.003 4.003 0 0 1-1.076-.714c-.037-.041-.031-.114.005-.16a.137.137 0 0 1 .152-.041c.39.131.79.232 1.197.3.583.093 1.302.217 2.032.248 1.775.088 3.633-.698 4.21-2.261.573-1.568.352-3.115-1.716-4.041-2.069-.932-3.024-2.034-4.694-2.702-1.092-.434-2.304-.175-3.549.508-3.36 1.826-6.368 7.606-4.982 12.962a.163.163 0 0 1-.078.176.17.17 0 0 1-.195-.016 10.425 10.425 0 0 1-1.097-1.407 10.314 10.314 0 0 1-.672-1.211Zm9.161-10.292c.562-.042 1.06.434 1.145 1.066.11.843-.205 1.718-1.234 1.738-.887.016-1.155-.859-1.092-1.392.058-.533.499-1.36 1.176-1.412h.005Z" fill="#000"/></svg>