<svg width="32" height="32" fill="none" xmlns="http://www.w3.org/2000/svg"><path d="M14.879 3.34a2.023 2.023 0 0 1 2.242 0l9.955 6.628c.577.383.924 1.037.924 1.738v8.588c0 .701-.348 1.355-.924 1.738l-9.955 6.628a2.024 2.024 0 0 1-2.242 0l-9.955-6.628a2.063 2.063 0 0 1-.679-.75A2.102 2.102 0 0 1 4 20.294v-8.588c0-.701.348-1.355.924-1.738l9.955-6.628Zm1.921 7.785v.812h-6.4a.794.794 0 0 0-.566.238.82.82 0 0 0-.234.575V16h-.533a.265.265 0 0 0-.189.08.273.273 0 0 0-.078.19v2.71c0 .149.12.27.267.27H9.6v1.625c0 .45.358.813.8.813h11.2a.794.794 0 0 0 .566-.238.82.82 0 0 0 .234-.575V19.25h.533a.27.27 0 0 0 .267-.27v-2.71a.273.273 0 0 0-.078-.19.264.264 0 0 0-.189-.08H22.4v-3.25a.82.82 0 0 0-.234-.575.794.794 0 0 0-.566-.238h-4V8.958a.273.273 0 0 0-.078-.191.265.265 0 0 0-.189-.08h-1.866a.265.265 0 0 0-.189.08.273.273 0 0 0-.078.191v1.896c0 .15.12.27.267.27H16.8Zm3.505 5.513-1.677 1.703a.32.32 0 0 1-.456 0l-1.01-1.026a.331.331 0 0 1 0-.463l.343-.35a.32.32 0 0 1 .457 0l.437.446 1.106-1.122a.32.32 0 0 1 .457 0l.343.348a.331.331 0 0 1 0 .464Zm-7.01 1.702v.001a.32.32 0 0 1-.457 0l-1.01-1.026a.327.327 0 0 1-.071-.357.328.328 0 0 1 .07-.106l.345-.35a.32.32 0 0 1 .455 0l.44.446 1.105-1.123a.32.32 0 0 1 .455 0l.345.348a.331.331 0 0 1 0 .464l-1.677 1.703Z" fill="#000"/></svg>