<svg width="32" height="32" fill="none" xmlns="http://www.w3.org/2000/svg"><path d="M15.977 17.531c1.55-3.015 3.764-7.762 3.8-7.79.038-.029.101-.061.152-.114.059-.06.119-.204.119-.18l.151.113s-1.846 4.068-1.846 4.19c0 .12 1.164 9.541 1.065 9.736-.1.194-2.94 3.071-3.114 3.071-.175 0-3.311-2.834-3.314-2.873a7.536 7.536 0 0 1 0-.393c.004-.153 1.782-3.415 2.987-5.76ZM13.658 6.962a76.931 76.931 0 0 1 1.827-1.52s.965.897 1.6 1.454A94.42 94.42 0 0 0 18.76 8.31s-2.103 4.368-3.46 7.2a5543.02 5543.02 0 0 0-3.498 7.321s-.003-.946 0-.984c.01-.125 1.695-3.65 1.695-3.65l-.09-2.238s-.571.009-.677-.052c-.106-.061-.374-.559-.374-.72 0-.16.795-.925.795-.925s-.358-1.347-.531-2.222c-.278-1.409-.482-3.645-.482-3.645a47.283 47.283 0 0 1 1.52-1.434Z" fill="#000"/></svg>