<svg width="32" height="32" fill="none" xmlns="http://www.w3.org/2000/svg"><path fill-rule="evenodd" clip-rule="evenodd" d="M12.052 2.002a1.743 1.743 0 0 1 1.425.594c.181.328.235.677.161 1.046l-.1.472c.038.028.075.059.11.092.896.163 1.394.703 1.496 1.62a3.3 3.3 0 0 1-.071.543 2.948 2.948 0 0 1-.232.461c.132.374.266.746.404 1.117.132-.176.267-.35.404-.522a1.6 1.6 0 0 1 .545-.329.69.69 0 0 1 .718.339c.1.327.066.641-.101.943-.159.24-.327.472-.506.697a6.982 6.982 0 0 0-.434.461c.366.864.828 1.667 1.384 2.41.257.28.506.567.748.86.155.24.283.493.384.759a2.96 2.96 0 0 1 1.182-.133.82.82 0 0 0 .11.05 8.736 8.736 0 0 1 3.89-.86 9.976 9.976 0 0 1 2.122.276.3.3 0 0 1 .233.216c.26 2.16-.145 4.183-1.213 6.068-.19.268-.371.541-.545.82a13.129 13.129 0 0 1-2.031 2.04l-.869.677a54.531 54.531 0 0 1-3.688 2.347c.034.207.082.412.142.615.186 1.085-.07 2.042-.768 2.87a4.352 4.352 0 0 1-1.182.933c-.372.182-.75.353-1.132.513-.276.026-.414-.1-.414-.38a6.42 6.42 0 0 0 .344-.758 6.05 6.05 0 0 0 .192-.984 5.086 5.086 0 0 1-.03-.43 14.937 14.937 0 0 0-.213-.739 1.8 1.8 0 0 0-.404.174c-.862 1.404-2.108 2.013-3.738 1.825a8.526 8.526 0 0 1-1.516-.348 28.076 28.076 0 0 1-.01-2.368 3.053 3.053 0 0 1 .92-1.979 3.199 3.199 0 0 1 1.111-.625c.061-.158.139-.308.232-.451.015-.024.012-.044-.01-.062a2.821 2.821 0 0 0-2.323-.215l-.405.164c-.326.051-.464-.089-.414-.42a6.363 6.363 0 0 1 1.304-1.855c1.039-.938 2.214-1.16 3.526-.667.097.036.19.077.282.123a.452.452 0 0 0 .112-.143 4.547 4.547 0 0 1-1.496-.954 12.96 12.96 0 0 1-1.06-1.22 101.56 101.56 0 0 0-1.94-2.726 15.77 15.77 0 0 0-.748-1.128 34.007 34.007 0 0 1-1.536-2.747 22.87 22.87 0 0 1-.747-2.03 6.854 6.854 0 0 1-.192-1.968c-.447-.429-.572-.942-.374-1.537.13-.344.342-.62.636-.83.287-.15.59-.205.91-.165a4.95 4.95 0 0 1 1.394-.963 5.707 5.707 0 0 1 1.637-.513c.43-.03.862-.04 1.293-.03.127-.447.396-.772.808-.974.096-.031.19-.055.283-.072Zm-.141 6.211a1.27 1.27 0 0 0-.253.41.344.344 0 0 0 .111.38c.145.04.29.037.435-.01.096.151.2.298.313.44l.121.082c.145.038.256-.007.333-.133a1.95 1.95 0 0 0 0-.349c.119.162.27.207.455.134a.33.33 0 0 0 .131-.36 9.106 9.106 0 0 0-.293-.491.947.947 0 0 0 .172-.144c.104-.15.094-.29-.03-.42a.676.676 0 0 0-.728-.051.486.486 0 0 0-.444.031.768.768 0 0 0-.323.481Zm12.214 7.73c-.31-1.041-1-1.567-2.07-1.58-.152.034-.307.065-.466.093a4.11 4.11 0 0 0-.586.328c-.607.5-.853 1.145-.737 1.937.179.756.627 1.265 1.344 1.528a2.002 2.002 0 0 0 1.737-.287c.628-.523.887-1.196.778-2.02Z" fill="#040404"/></svg>