<svg width="32" height="32" fill="none" xmlns="http://www.w3.org/2000/svg"><path d="M11.4 10h2.7v7.6c0 3.4-1.6 4.6-4.3 4.6-.6 0-1.5-.1-2-.3l.3-2.2c.4.2.9.3 1.4.3 1.1 0 1.9-.5 1.9-2.4V10Zm5.1 9.2c.7.4 1.9.8 3 .8 1.3 0 1.9-.5 1.9-1.3s-.6-1.2-2-1.7c-2-.7-3.3-1.8-3.3-3.6 0-2.1 1.7-3.6 4.6-3.6 1.4 0 2.4.3 3.1.6l-.6 2.2c-.5-.2-1.3-.6-2.5-.6s-1.8.5-1.8 1.2c0 .8.7 1.1 2.2 1.7 2.1.8 3.1 1.9 3.1 3.6 0 2-1.6 3.7-4.9 3.7-1.4 0-2.7-.4-3.4-.7l.6-2.3Z" fill="#F1DD3F"/><path fill-rule="evenodd" clip-rule="evenodd" d="M3 20v7h7v-1H4v-6H3Z" fill="#F1DD3F"/></svg>