<svg width="32" height="32" fill="none" xmlns="http://www.w3.org/2000/svg"><path d="m24.13 6.493-2.367 6.992a2.39 2.39 0 0 0-.3.093l-2.338-4.777-2.345 4.749a2.38 2.38 0 0 0-.313-.085L14.11 6.493h10.02Zm-.334 9.347c0 .811-.659 1.472-1.47 1.472a1.472 1.472 0 0 1 0-2.943c.811 0 1.47.66 1.47 1.471Zm-7.801-1.471a1.472 1.472 0 0 1 0 2.943 1.472 1.472 0 0 1 0-2.943Z" fill="#000"/><path d="M22.576 21.614a2.854 2.854 0 0 0 1.395-1.977 2.96 2.96 0 0 0-.265-1.809 2.402 2.402 0 0 1-1.38.434 2.423 2.423 0 0 1-2.418-2.422h-1.495a2.423 2.423 0 0 1-2.78 2.395 9.02 9.02 0 0 1-1.431 1.733 8.224 8.224 0 0 1-2.89 1.795l-.194.07-.183-.095c-1.335-.687-1.971-2.14-1.567-3.477a2.395 2.395 0 0 1-.625-.157l-.2.418c-.398.817-.809 1.662-.96 2.58-.165.99-.23 2.798 1.178 3.775 1.921 1.334 3.959.32 6.319-.854 1.179-.586 2.398-1.193 3.657-1.504.476-.117.963-.188 1.435-.256.88-.127 1.71-.247 2.404-.65ZM9.638 14.383a1.472 1.472 0 0 1 0 2.943 1.472 1.472 0 0 1 0-2.943Z" fill="#000"/></svg>