<svg width="32" height="32" fill="none" xmlns="http://www.w3.org/2000/svg"><path fill-rule="evenodd" clip-rule="evenodd" d="M23.875 7C24.496 7 25 7.504 25 8.125v15.75c0 .621-.504 1.125-1.125 1.125H8.125A1.125 1.125 0 0 1 7 23.875V8.125C7 7.504 7.504 7 8.125 7h15.75Zm-9.741 8.045v5.516c0 1.38-.457 1.522-1.262 1.522-.365 0-1.08-.241-1.372-.583v1.802c.588.44 1.061.44 1.5.44 1.825 0 3.11-.713 3.11-3.18v-5.517h-1.976Zm6.772-.169c-.435 0-.846.05-1.235.15-.388.1-.73.253-1.026.463a2.273 2.273 0 0 0-.7.805c-.172.325-.256.714-.256 1.167 0 .58.156 1.072.47 1.481.315.41.792.756 1.432 1.038.25.11.486.216.703.32.217.107.405.216.563.329.158.113.284.237.375.37.092.134.14.294.137.456a.73.73 0 0 1-.346.628c-.116.079-.26.14-.434.185-.2.047-.405.07-.61.067a3.293 3.293 0 0 1-1.177-.222 3.473 3.473 0 0 1-1.08-.665v1.942c.33.173.687.296 1.054.364.407.08.834.121 1.284.121.437 0 .855-.045 1.249-.133.393-.089.74-.237 1.038-.44.297-.206.54-.48.706-.802.173-.33.26-.737.26-1.223 0-.35-.05-.66-.149-.925-.097-.26-.242-.5-.429-.707a3.179 3.179 0 0 0-.671-.555 7.059 7.059 0 0 0-.884-.464c-.24-.105-.456-.208-.646-.307a3.239 3.239 0 0 1-.486-.304c-.121-.09-.226-.2-.309-.326a.721.721 0 0 1-.108-.392.7.7 0 0 1 .096-.362.868.868 0 0 1 .276-.276 1.42 1.42 0 0 1 .433-.178c.172-.043.363-.065.573-.065a3.623 3.623 0 0 1 1.495.34c.162.077.311.166.45.267V15.21a4.257 4.257 0 0 0-.913-.252 6.998 6.998 0 0 0-1.135-.082Z" fill="#F7DF1E"/></svg>