<svg width="32" height="32" fill="none" xmlns="http://www.w3.org/2000/svg"><g opacity=".8"><path d="M18.818 8.235c1.103-1.598 2.378-2.324 3.791-2.226l-5.962 10.396a2.065 2.065 0 0 1-.755.995c-.324.213-.5.187-.82.302a1.153 1.153 0 0 0-.666.572l-.11.353c-.1.315-.257.63-.022.937.155.202.448.278.836.264.336.069.655.207.935.406.287.213.532.478.721.781.554 1.074.59 2.258-.185 3.621-.854 1.607-2.042 2.164-3.407 2.144-.885-.12-1.491-.526-1.866-1.17-.576-.988-.567-2.054-.192-3.1.277-.705.622-1.382 1.029-2.02l1.052-2.637.103.097 5.518-9.715Zm5.315 9.125c1.935-.17 3.195-.92 3.808-2.198l-9.905.046-1.264 2.158 7.361-.006ZM13.64 16.191a1.181 1.181 0 0 1-.413.056l-.361-.078c-.323-.069-.675-.088-.826-.443-.1-.236-.02-.528.183-.858.105-.329.14-.677.102-1.02a2.854 2.854 0 0 0-.32-1.007c-.66-1.01-1.673-1.628-3.24-1.625-1.81-.04-2.885.711-3.54 1.909-.34.824-.282 1.558.09 2.197.572.981 1.508 1.506 2.602 1.696.75.107 1.508.14 2.264.1l2.73.376.055-.096-.006-.03.022.002.658-1.179Zm-2.6-1.467h.001c-.226.414-.594.73-1.036.893a3.863 3.863 0 0 1-1.238.268 2.727 2.727 0 0 1-1.573-.363c-1.033-.614-1.422-1.777-.319-2.562a3.413 3.413 0 0 1 1.988-.561c.7.027 1.27.22 1.693.582.528.45.819 1.076.484 1.742Zm4.893 1.343a.57.57 0 0 0-.781-.207.572.572 0 1 0 .78.207Zm-1.28 4.86-.002-.003a1.943 1.943 0 0 0-1.287.459 3.826 3.826 0 0 0-.844.945 2.716 2.716 0 0 0-.462 1.546c.025 1.2.845 2.113 2.073 1.542a3.426 3.426 0 0 0 1.473-1.444c.318-.629.431-1.218.325-1.766-.131-.682-.531-1.242-1.276-1.28Z" fill="#000"/><path d="M18.818 8.235c1.103-1.598 2.378-2.324 3.791-2.226l-5.962 10.396a2.065 2.065 0 0 1-.755.995c-.324.213-.5.187-.82.302a1.153 1.153 0 0 0-.666.572l-.11.353c-.1.315-.257.63-.022.937.155.202.448.278.836.264.336.069.655.207.935.406.287.213.532.478.721.781.554 1.074.59 2.258-.185 3.621-.854 1.607-2.042 2.164-3.407 2.144-.885-.12-1.491-.526-1.866-1.17-.576-.988-.567-2.054-.192-3.1.277-.705.622-1.382 1.029-2.02l1.052-2.637.103.097 5.518-9.715Zm5.315 9.125c1.935-.17 3.195-.92 3.808-2.198l-9.905.046-1.264 2.158 7.361-.006ZM13.64 16.191a1.181 1.181 0 0 1-.413.056l-.361-.078c-.323-.069-.675-.088-.826-.443-.1-.236-.02-.528.183-.858.105-.329.14-.677.102-1.02a2.854 2.854 0 0 0-.32-1.007c-.66-1.01-1.673-1.628-3.24-1.625-1.81-.04-2.885.711-3.54 1.909-.34.824-.282 1.558.09 2.197.572.981 1.508 1.506 2.602 1.696.75.107 1.508.14 2.264.1l2.73.376.055-.096-.006-.03.022.002.658-1.179Zm-2.6-1.467h.001c-.226.414-.594.73-1.036.893a3.863 3.863 0 0 1-1.238.268 2.727 2.727 0 0 1-1.573-.363c-1.033-.614-1.422-1.777-.319-2.562a3.413 3.413 0 0 1 1.988-.561c.7.027 1.27.22 1.693.582.528.45.819 1.076.484 1.742Zm4.893 1.343a.57.57 0 0 0-.781-.207.572.572 0 1 0 .78.207Zm-1.28 4.86-.002-.003a1.943 1.943 0 0 0-1.287.459 3.826 3.826 0 0 0-.844.945 2.716 2.716 0 0 0-.462 1.546c.025 1.2.845 2.113 2.073 1.542a3.426 3.426 0 0 0 1.473-1.444c.318-.629.431-1.218.325-1.766-.131-.682-.531-1.242-1.276-1.28Z" stroke="#fff" stroke-width=".08" stroke-miterlimit="10"/></g></svg>