<svg width="32" height="32" fill="none" xmlns="http://www.w3.org/2000/svg"><path d="M5.75 22.279c.546.361 1.544.835 2.552 1.382 2.343 1.268 5.304 2.81 6.777 3.416.2.082.319.122.457.129a.853.853 0 0 0 .271-.063l-.29-10.483c-.017-.553-.249-.737-.454-.87-.32-.204-1.013-.524-1.013-.524s-2.43-1.208-4.855-2.48c-1.154-.605-2.128-1.225-3.175-1.736-.193-.091-.419.024-.419.24v10.745c0 .102.063.188.15.244Z" fill="#000"/><path d="M6.612 10.317 9.37 8.896l9.892 5.101a.166.166 0 0 1 .043.122l-.007.283-.008.298v.036c-.009.344-.015.69-.022 1.034-.015.713-.03 1.427-.053 2.139.059-.035.123-.015.187.004.067.02.132.04.189-.004.096-.076.256-.302.385-.483.095-.135.174-.246.197-.254a.401.401 0 0 1 .146-.01.786.786 0 0 0 .076.001c.2-.01.555-.268.832-.47.17-.123.312-.226.37-.238.15-.028.642.067.642.067s-.023-2.176-.038-3.272a73.797 73.797 0 0 0-.009-.538c-.003-.156-.03-.2-.04-.21a.145.145 0 0 0-.012-.014l-.02-.017a.307.307 0 0 1-.02-.015c-.088-.066-9.565-5.018-9.734-5.106l2.87-1.48c.17-.097.35-.068.567.012 0 0 3.37 1.494 8.497 4.392.358.201.568.356.778.53.08.067.201.176.259.298.038.08.053.227.058.298l.003.218V21.9a.498.498 0 0 1-.271.442l-8.413 4.338-.128-4.592-.151-5.454c-.012-.406-.107-.765-.304-1.068a1.846 1.846 0 0 0-.568-.547l-.004-.003a8.235 8.235 0 0 0-.715-.39 17.99 17.99 0 0 0-.375-.18l-.022-.01-.097-.048-.307-.153c-.264-.133-.643-.323-1.097-.553 0 0-4.509-2.363-4.72-2.483l-.205-.117a32.51 32.51 0 0 0-1.41-.765Zm18.787 1.125Z" fill="#000"/></svg>