<svg width="32" height="32" fill="none" xmlns="http://www.w3.org/2000/svg"><path fill-rule="evenodd" clip-rule="evenodd" d="M14.498 5.014a7.49 7.49 0 0 1 4.647 1.237A4.812 4.812 0 0 1 21 9.06a8.637 8.637 0 0 0-4.477.806 13.213 13.213 0 0 0-4.594 3.733 14.08 14.08 0 0 0-1.833 3.098 8.53 8.53 0 0 0-.682 3.894A7.37 7.37 0 0 0 10.576 24a381.604 381.604 0 0 1-4.786-4.83 8.644 8.644 0 0 1-.576-5.529 10.68 10.68 0 0 1 1.77-3.83 14.896 14.896 0 0 1 3.23-3.194 8.75 8.75 0 0 1 4.284-1.603Z" fill="#000"/><path fill-rule="evenodd" clip-rule="evenodd" d="M20.66 7.02c.009-.022.023-.026.043-.01a661.307 661.307 0 0 0 4.478 4.545 9.233 9.233 0 0 1 .669 5.474 10.277 10.277 0 0 1-1.64 3.924 14.05 14.05 0 0 1-3.744 3.653 8.617 8.617 0 0 1-4.014 1.373 7.445 7.445 0 0 1-4.273-.959c-1.094-.689-1.82-1.66-2.179-2.911 1.445.034 2.84-.217 4.186-.752 2.879-1.172 5.076-3.124 6.593-5.855a9.756 9.756 0 0 0 1.122-3.641c.126-1.76-.288-3.373-1.241-4.841Z" fill="#000"/></svg>