<svg width="32" height="32" fill="none" xmlns="http://www.w3.org/2000/svg"><path d="m20.584 12.882-.007-.003a.03.03 0 0 1-.012-.007.058.058 0 0 1-.015-.05l.411-2.512 1.931 1.928-2.008.852a.042.042 0 0 1-.017.003h-.008a.914.914 0 0 0-.274-.212Zm2.8-.153 2.065 2.06c.429.429.643.642.722.89.011.037.021.073.029.111l-4.934-2.085a.19.19 0 0 0-.008-.003c-.02-.008-.043-.017-.043-.038 0-.02.024-.03.044-.037l.006-.003 2.12-.895Zm2.731 3.723c-.106.2-.314.407-.665.758l-2.328 2.323-3.01-.626-.016-.003c-.027-.004-.055-.01-.055-.033a.905.905 0 0 0-.349-.634c-.012-.012-.009-.032-.005-.05v-.007l.567-3.469.002-.012c.003-.026.008-.057.032-.057a.923.923 0 0 0 .618-.353c.005-.006.008-.012.014-.015.017-.008.038 0 .055.008l5.14 2.17Zm-3.528 3.615-3.827 3.82.655-4.019v-.005a.07.07 0 0 1 .004-.015c.005-.013.02-.018.032-.024l.007-.003a.985.985 0 0 0 .37-.274c.013-.015.028-.03.048-.032h.015l2.695.553Zm-4.637 4.629-.432.43-4.77-6.88a.198.198 0 0 0-.005-.007c-.007-.01-.015-.02-.013-.032 0-.009.005-.016.011-.022l.006-.007c.014-.021.026-.043.04-.066l.01-.018.002-.002c.007-.013.014-.025.027-.032.011-.005.027-.003.039 0l5.284 1.087a.088.088 0 0 1 .04.018.034.034 0 0 1 .01.023.934.934 0 0 0 .548.624c.015.008.008.024.001.042a.134.134 0 0 0-.008.024l-.79 4.818Zm-.902.899c-.318.314-.505.48-.717.547a1.067 1.067 0 0 1-.642 0c-.248-.078-.463-.292-.892-.72l-4.79-4.781 1.252-1.937a.08.08 0 0 1 .02-.025c.014-.01.033-.005.05 0a1.3 1.3 0 0 0 .872-.044c.014-.005.028-.01.04.001a.1.1 0 0 1 .014.017l4.793 6.942ZM9.546 20.18l-1.099-1.097 2.17-.924a.047.047 0 0 1 .017-.004c.018 0 .03.018.039.035.021.034.045.066.069.098l.007.008c.006.01.002.018-.004.027L9.546 20.18ZM7.96 18.598 6.57 17.21a8.043 8.043 0 0 1-.528-.554l4.227.875.016.002c.026.005.055.01.055.034 0 .026-.032.039-.058.049l-.012.005-2.31.977ZM5.8 15.942c.004-.09.02-.178.047-.263.08-.248.293-.461.723-.89l1.778-1.775c.82 1.186 1.64 2.371 2.464 3.555.015.019.03.04.014.056-.078.085-.155.18-.21.28a.085.085 0 0 1-.027.034c-.007.004-.014.002-.022 0h-.001L5.8 15.943Zm3.025-3.404 2.39-2.387c.226.098 1.044.443 1.776.752.553.234 1.058.446 1.217.515.016.007.03.013.037.029.005.01.002.022 0 .032a1.063 1.063 0 0 0 .279.972c.016.016 0 .038-.014.058l-.007.011-2.429 3.755a.074.074 0 0 1-.023.027c-.013.008-.03.004-.046 0a1.212 1.212 0 0 0-.289-.04c-.087 0-.182.017-.278.034-.011.002-.02.004-.03-.002a.113.113 0 0 1-.023-.027l-2.56-3.729Zm2.875-2.87 3.096-3.09c.429-.428.643-.642.892-.72.209-.066.433-.066.642 0 .248.078.463.292.892.72l.67.67-2.202 3.404a.082.082 0 0 1-.022.026c-.013.009-.032.005-.047 0a1.119 1.119 0 0 0-1.023.196c-.014.015-.036.007-.054-.001A869.482 869.482 0 0 0 11.7 9.669Zm6.66-1.953 2.034 2.03-.49 3.028v.008a.07.07 0 0 1-.005.02c-.005.011-.015.013-.026.017a.976.976 0 0 0-.324.167.062.062 0 0 1-.023-.004l-3.099-1.314-.005-.003c-.02-.008-.044-.017-.044-.037a1.166 1.166 0 0 0-.165-.487c-.015-.024-.031-.05-.018-.075l2.165-3.35Zm-2.094 4.575 2.905 1.228c.016.007.033.014.04.03.003.01.003.02 0 .03a.72.72 0 0 0-.016.14v.082c0 .02-.02.029-.04.037l-.005.002c-.46.196-6.46 2.75-6.47 2.75-.009 0-.018 0-.028-.01-.016-.015 0-.038.015-.058a.4.4 0 0 0 .007-.01l2.387-3.69.005-.006c.013-.022.03-.047.055-.047l.024.003c.054.008.102.015.15.015.363 0 .698-.176.9-.477a.082.082 0 0 1 .019-.021c.014-.011.036-.006.052.002Zm-3.326 4.883 6.54-2.785s.01 0 .018.01a.863.863 0 0 0 .096.081l.014.01c.013.007.027.015.028.03l-.001.012-.56 3.436-.003.014c-.003.026-.007.056-.032.056a.922.922 0 0 0-.731.45l-.003.005c-.008.012-.014.024-.027.03-.01.006-.025.003-.037 0l-5.216-1.073c-.005-.001-.08-.276-.086-.277Z" fill="#000"/></svg>