<svg width="32" height="32" fill="none" xmlns="http://www.w3.org/2000/svg"><path d="M16.5 26.373c-.295 0-.57-.079-.826-.216l-2.616-1.551c-.393-.216-.197-.295-.079-.334.531-.177.63-.216 1.18-.53.06-.04.138-.02.197.019l2.006 1.198c.079.04.177.04.236 0l7.848-4.536c.079-.04.118-.117.118-.216v-9.051c0-.099-.04-.177-.118-.216l-7.848-4.516c-.078-.04-.177-.04-.236 0L8.514 10.94c-.079.039-.118.137-.118.216v9.051c0 .079.04.177.118.216l2.144 1.237c1.16.59 1.888-.098 1.888-.785V11.94a.24.24 0 0 1 .236-.236h1.004c.117 0 .235.098.235.236v8.934c0 1.551-.845 2.454-2.32 2.454-.453 0-.807 0-1.81-.49L7.826 21.66A1.657 1.657 0 0 1 7 20.227v-9.052a1.656 1.656 0 0 1 .826-1.433l7.848-4.536a1.758 1.758 0 0 1 1.652 0l7.848 4.536A1.658 1.658 0 0 1 26 11.175v9.052a1.656 1.656 0 0 1-.826 1.433l-7.848 4.536a2.213 2.213 0 0 1-.826.177Z" fill="#000"/><path d="M18.939 20.148c-3.443 0-4.15-1.57-4.15-2.906 0-.117.098-.235.236-.235h1.022c.119 0 .217.078.217.196.157 1.04.61 1.551 2.695 1.551 1.652 0 2.36-.373 2.36-1.256 0-.51-.197-.884-2.774-1.14-2.144-.215-3.48-.687-3.48-2.395 0-1.59 1.337-2.532 3.579-2.532 2.518 0 3.756.864 3.914 2.748 0 .06-.02.118-.06.177-.038.04-.097.079-.157.079H21.3a.23.23 0 0 1-.216-.177c-.236-1.08-.846-1.433-2.459-1.433-1.81 0-2.026.628-2.026 1.099 0 .57.256.746 2.695 1.06 2.42.315 3.56.766 3.56 2.455 0 1.728-1.436 2.71-3.914 2.71Z" fill="#000"/></svg>