<svg viewBox="0 0 32 32" xmlns="http://www.w3.org/2000/svg"><path d="M17.34 23.17h8.172c.26 0 .514-.066.739-.191.225-.126.411-.307.54-.525a1.4 1.4 0 0 0 0-1.434l-5.487-9.22a1.456 1.456 0 0 0-.54-.524 1.513 1.513 0 0 0-1.48 0 1.456 1.456 0 0 0-.54.525l-1.403 2.358-2.743-4.612a1.457 1.457 0 0 0-.542-.525 1.514 1.514 0 0 0-1.478 0 1.457 1.457 0 0 0-.541.525L5.209 21.02a1.4 1.4 0 0 0 0 1.434c.129.218.315.399.54.525.225.126.48.192.74.192h5.128c2.032 0 3.531-.866 4.562-2.555l2.504-4.206 1.34-2.25 4.025 6.76h-5.365l-1.342 2.25Zm-5.806-2.252-3.58-.001 5.366-9.014 2.677 4.507-1.793 3.012c-.684 1.096-1.462 1.496-2.67 1.496Z"/></svg>