<svg viewBox="0 0 32 32" xmlns="http://www.w3.org/2000/svg"><path d="m15.988 18.458-2.903 4.562-4.812-7.809-.011 8.175H4.879V9.567H8.3l4.863 8.186.005-3.705 2.82 4.41Zm.557-5.338c.022-.045 0-3.507.007-3.553H13.17c.002.055-.005 3.5-.003 3.553h3.378Zm5.22 3.83a1.91 1.91 0 0 0-1.824 1.239 1.82 1.82 0 0 1 2.172-.685c.367.149.85.39 1.232.262a1.945 1.945 0 0 0-1.58-.815Zm3.142.984c-.347-.12-.74-.257-1.027-.631a3.621 3.621 0 0 1-.163-.246 1.985 1.985 0 0 0-.494-.595c-.273-.2-.63-.298-1.094-.298a2.299 2.299 0 0 0-2.126 1.423 2.154 2.154 0 0 1 3.709.36.695.695 0 0 0 .775.31c.457-.098.426.333 1.115.48v-.124c-.003-.413-.227-.51-.695-.68Zm1.876 1.173a.67.67 0 0 0 .322-.591c-.01-2.74-2.234-5.085-4.977-5.085a4.97 4.97 0 0 0-4.158 2.24c-.01-.023-1.41-2.214-1.425-2.24h-3.378l3.21 5.025-3.132 4.93h3.28l1.428-2.192 1.453 2.192h3.281l-2.975-4.681a.65.65 0 0 1-.078-.297 2.492 2.492 0 0 1 2.493-2.494h.001c1.38 0 1.609.825 1.907 1.213.587.765 1.76.43 1.76 1.428a.655.655 0 0 0 .988.552Zm.324.123c-.16.345-.518.313-.7.592-.162.252.106.382.106.382s.313.145.499-.288c.096-.214.13-.452.095-.686Z"/></svg>