<svg width="32" height="32" fill="none" xmlns="http://www.w3.org/2000/svg"><path fill-rule="evenodd" clip-rule="evenodd" d="M17.003 8.587A2.4 2.4 0 0 0 18.428 6.4C18.429 5.075 17.34 4 16 4c-1.341 0-2.428 1.075-2.428 2.4a2.4 2.4 0 0 0 1.426 2.187l-.062 1.766h-.007l-3.39.253a.426.426 0 0 0-.396.422v.91c0 .22.172.404.396.421l3.318.253-.157 5.897c-.048 1.78-.342 3.962-2.102 4.344a2.812 2.812 0 0 1-.598.065c-1.055 0-2.273-1.284-3.053-2.6.306-.132.622-.247.948-.345.186-.056.223-.314.061-.42-1.169-.763-2.096-1.788-2.665-2.973-.078-.163-.314-.175-.393-.012a9.15 9.15 0 0 0-.503 1.271 8.696 8.696 0 0 0-.282 3.985c.027.17.24.23.365.11.234-.223.484-.433.748-.63C8.661 25.768 13.46 28 16 28c2.54 0 7.341-2.233 8.775-6.7.264.198.514.409.747.633.125.12.339.06.366-.11l.007-.045.006-.038a8.734 8.734 0 0 0-.295-3.9 9.128 9.128 0 0 0-.499-1.27c-.078-.163-.315-.151-.393.012-.567 1.185-1.49 2.209-2.652 2.972-.162.106-.125.363.06.419.321.097.633.21.934.34-.78 1.318-2 2.605-3.056 2.605-.203 0-.403-.023-.598-.065-1.76-.382-2.054-2.564-2.101-4.344l-.158-5.897 3.319-.252a.426.426 0 0 0 .395-.423v-.909a.425.425 0 0 0-.396-.422l-3.39-.253h-.007l-.061-1.766Zm.426-2.187c0 .78-.64 1.412-1.429 1.412A1.42 1.42 0 0 1 14.572 6.4c0-.78.64-1.412 1.428-1.412A1.42 1.42 0 0 1 17.43 6.4Z" fill="#000"/></svg>