<svg width="32" height="32" fill="none" xmlns="http://www.w3.org/2000/svg"><path d="M17.053 12.727v1.091c0 .31.1.569.303.778.202.21.452.314.75.313.297 0 .547-.105.75-.314.203-.209.303-.468.302-.777v-1.09h1.052a1 1 0 0 0 .751-.315c.202-.21.303-.468.302-.777 0-.308-.102-.567-.303-.776a.998.998 0 0 0-.75-.314h-1.052V9.455c0-.31-.101-.568-.303-.777a1.005 1.005 0 0 0-.75-.314.995.995 0 0 0-.75.314c-.201.21-.302.469-.302.777v1.09H16a.998.998 0 0 0-.75.315c-.2.21-.302.468-.303.776 0 .309.1.568.304.778a.99.99 0 0 0 .749.313h1.053ZM16 19.273h4.21c.299 0 .549-.105.751-.314.202-.21.303-.469.302-.777a1.08 1.08 0 0 0-.303-.777.998.998 0 0 0-.75-.314H16a.998.998 0 0 0-.75.314 1.08 1.08 0 0 0-.303.777c0 .308.1.567.304.778.202.21.452.314.749.313Zm-3.684 4.363a1.991 1.991 0 0 1-1.487-.64 2.144 2.144 0 0 1-.619-1.541V6.181c0-.6.207-1.114.62-1.54a1.997 1.997 0 0 1 1.486-.642h6.5a2.029 2.029 0 0 1 1.474.627l5.105 5.291c.193.2.342.432.447.696.105.264.158.541.158.831v10.01c0 .6-.206 1.113-.618 1.541a1.988 1.988 0 0 1-1.487.64h-11.58ZM8.106 28a1.992 1.992 0 0 1-1.487-.64A2.144 2.144 0 0 1 6 25.818V11.636c0-.309.101-.568.303-.776a.998.998 0 0 1 .75-.314.998.998 0 0 1 .75.314c.203.21.304.469.302.776v14.182h10.527c.298 0 .548.105.75.314.202.21.303.469.302.777 0 .308-.102.568-.303.778a.99.99 0 0 1-.75.313H8.106Z" fill="#000"/></svg>