<svg width="32" height="32" fill="none" xmlns="http://www.w3.org/2000/svg"><path fill-rule="evenodd" clip-rule="evenodd" d="M20.159 11.146c2.362.633 4.273.46 5.07.32a23 23 0 0 0 .434-.082c.847-.165 1.28-.249 1.23.495-.05.76-.232 1.94-.65 3.496-.903 3.373-3.876 9.876-9.461 8.38-1.527-.41-2.587-1.24-3.301-2.298a5.093 5.093 0 0 1-.596.2c-4.312 1.161-6.594-3.836-7.284-6.43-.32-1.197-.459-2.104-.496-2.689-.037-.572.298-.508.95-.383.104.02.216.041.335.062.615.106 2.089.237 3.912-.255a10.05 10.05 0 0 0 2.762-1.203c.321-1.041.636-1.821.895-2.347.33-.669.663-.379 1.313.187.104.09.215.187.336.288.621.52 2.188 1.626 4.55 2.259Zm-7.952 6.2-.127.035c-2.08.59-2.376 2.303-2.376 2.303l2.729-.773a11.129 11.129 0 0 1-.226-1.564Zm4.171-4.035c-1.493-.424-2.373.945-2.373.945l3.983 1.131s-.116-1.652-1.61-2.076Zm-1.76 4.225s.405 2.095 3.031 2.864c2.576.753 3.998-.861 4.024-.89v-.001l-7.055-1.973Zm7.898-2.383c-1.493-.425-2.372.943-2.372.943l3.982 1.134s-.117-1.652-1.61-2.077Zm-12.196-.697-3.065.807s.677.977 1.827.675c1.148-.303 1.238-1.482 1.238-1.482Z" fill="#2EAD33"/></svg>