<svg viewBox="0 0 32 32" xmlns="http://www.w3.org/2000/svg"><path fill-rule="evenodd" clip-rule="evenodd" d="M9.666 14.862c.028.02.075.034.028.075-.035.047-.076.088-.103.143-.027.048-.047.062-.088.027a3.84 3.84 0 0 1 .163-.246Zm13.703 7.156c0 .02.006.034.006.055.014-.027.014-.041.021-.055h-.027Zm-1.391 2.725-1.186-6.583c-.02-.006-.048-.02-.096-.034.014.028.02.048.028.069.033-.007.047-.007.06-.014 0-.007 0-.013.008-.02l1.186 6.583v-.001Zm-1.227-8.065c-.007.02-.007.041-.007.062 0-.021 0-.042.007-.062Zm.007.136c-.007 0-.007 0-.014-.007v.007c.007.007.007.007.014 0Zm-.014.055v-.048c-.02.007-.04.007-.068.014.035.013.069.02.069.033v.001Z"/><path fill-rule="evenodd" clip-rule="evenodd" d="M26.054 15.21c-.013-.266-.02-.533-.047-.799-.048-.362-.096-.73-.177-1.086a6.141 6.141 0 0 0-.266-.853c-.13-.328-.26-.663-.423-.977-.266-.505-.613-.956-.934-1.427-.212-.3-.484-.547-.689-.854a2.093 2.093 0 0 0-.457-.464 11.694 11.694 0 0 0-.845-.608 8.428 8.428 0 0 0-.668-.424c-.184-.102-.382-.184-.573-.273-.218-.103-.43-.226-.675-.273-.061-.013-.116-.034-.177-.055-.157-.054-.307-.116-.464-.164-.238-.075-.47-.163-.715-.225a6.57 6.57 0 0 0-.73-.137c-.272-.04-.551-.054-.824-.08a6.952 6.952 0 0 0-.525-.048c-.26-.014-.525-.014-.784-.02-.13-.008-.266-.021-.395-.014a5.816 5.816 0 0 0-.594.054c-.19.02-.381.055-.565.082-.225.027-.45.041-.675.069-.211.027-.43.068-.64.102-.075.014-.15.041-.226.055-.163.034-.333.048-.497.102-.293.09-.586.192-.873.301a8.03 8.03 0 0 0-.777.362c-.259.143-.504.314-.75.478-.232.157-.463.32-.689.498a8.175 8.175 0 0 0-.62.553c-.109.11-.197.24-.3.362-.17.199-.34.39-.504.595-.136.17-.26.348-.389.526a8.707 8.707 0 0 0-.613.983c-.075.136-.143.273-.211.41-.102.204-.211.402-.307.614-.068.144-.123.3-.164.458-.095.334-.19.676-.279 1.01a3.83 3.83 0 0 0-.109.922c-.007.274.02.54.048.813.007.069-.034.15.048.205-.028.075-.007.116.033.13-.047.075.02.123-.006.191-.007.014.02.04.034.061 0 .021-.007.048 0 .069.007.061.034.122.034.191 0 .048.04.102.054.15.007.02 0 .055-.013.068-.041.048-.034.09.027.116.034.09.02.13.014.172.013.06-.007.081 0 .095a.9.9 0 0 1 .082.355c0 .027.013.055.027.089.007 0 0 .13 0 .13.034-.02.061-.027.095-.041.021.088.041.17.068.246.035.054.035.081.021.088.027.123.04.239.088.355 0-.13-.013-.26-.033-.382.095.034.177.068.231.068.007-.02.014-.048.021-.061-.04-.041-.075-.102-.116-.143.014.054 0 .075 0 .095-.027-.014-.061-.027-.095-.041.027-.034.054-.068.095-.109 0-.062-.034-.116-.13-.11.042-.013.082-.033.13-.047.075-.04-.007-.116-.007-.212.007-.116-.061-.232-.081-.355-.035-.19-.028-.478-.048-.669-.041-.034-.075.055-.082.062.02.163.04.327.054.491-.04-.136-.068-.287-.102-.45-.007.047-.013.068-.013.095-.034.034-.007.075.013.123-.047-.02-.102-.014-.102-.014v.192c-.068-.069-.088-.123-.123-.171-.013-.055-.02-.11-.033-.163.013-.035 0-.055 0-.076a4.131 4.131 0 0 1-.02-.164.613.613 0 0 0-.008-.109c.055.007.09.013.123.013-.068-.088-.02-.143.007-.198.014-.027.062-.033.075-.061.055-.103.144-.184.144-.314 0-.062.02-.13.027-.192a5.65 5.65 0 0 0 .033-.348c.014-.15 0-.3.035-.444a9.69 9.69 0 0 1 .198-.717c.054-.17.116-.334.184-.505.102-.266.198-.533.327-.785.184-.37.395-.724.6-1.086.13-.226.266-.437.41-.656.135-.211.271-.43.429-.628.218-.28.457-.54.722-.772.273-.246.532-.498.825-.724a8.283 8.283 0 0 1 1.213-.779 9.296 9.296 0 0 1 1.07-.464c.232-.089.484-.13.723-.205a2.87 2.87 0 0 1 .832-.137c.184-.007.361-.027.545-.048.164-.013.327-.027.505-.047a.225.225 0 0 0-.034.054c-.075.11-.157.22-.232.328-.061.09-.13.185-.191.273-.11.144-.225.287-.327.438-.157.225-.3.457-.464.683-.163.218-.34.423-.511.635-.225.293-.437.594-.661.887-.205.28-.423.547-.62.827-.178.245-.335.505-.505.758-.252.375-.505.744-.757 1.12-.197.286-.395.566-.6.853-.013.021-.034.027-.054.041-.054.089-.054.137-.075.177a4.182 4.182 0 0 1-.17.301c-.035.054-.082.102-.123.157-.007-.082.109-.123.054-.226-.034.055-.068.103-.102.158l-.082.163c.027.02.075.035.027.075-.02.035-.04.075-.061.11a.248.248 0 0 0 .075-.069c0 .075-.04.137-.075.198-.027.055-.095.096-.143.137.007.007.054.027.061.034.062-.02.082-.055.09-.034.02-.027.04-.048.047-.069a.247.247 0 0 1 .136-.15.28.28 0 0 0 .068-.054c.205-.212.416-.417.6-.642.287-.349.546-.71.819-1.066.115-.15.252-.3.374-.444.02.157.007.307 0 .451-.02.253-.034.506-.054.765-.007.102 0 .204-.007.307 0 .027-.02.048-.02.075 0 .068.02.144.02.212-.02.253-.048.498-.069.751-.007.054.02.11.034.157-.034.369.041.758-.02 1.148.047-.076.061-.123.061-.171.007-.04 0-.082 0-.13v-.068c.007-.123.034-.253.02-.376a1.274 1.274 0 0 1 .014-.396c.014-.054-.007-.123.027-.191v.102c-.006.39.007.779-.047 1.168-.007.034.02.096-.054.089-.062.123.013.212-.055.28-.014.013.013.075.02.116-.027.082-.027.082.014.089.006.15.02.286.027.43.109-.26.054-.526.102-.793.007.11.014.22.007.335 0 .178-.007.348-.013.526a.51.51 0 0 1-.014.102c-.02.096-.027.192-.061.28-.028.069-.014.171-.014.253v.26c.027.116-.007.177.014.245-.021.07-.028.09-.021.11l.02.102c.137-.013.076.09.13.144-.04.055-.027.075-.027.103 0 .061-.007.116-.014.177 0 .157-.006.314-.006.465 0 .02.006.04.006.06l-.006.193c.013.02 0 .04-.021.06-.007 0-.027-.867-.027-.867h-.102c-.014.41.02.778-.055 1.161-.082.007-.109.02-.198.02-.211 0-.422 0-.634.007-.252 0-.497.007-.75.007-.122 0-.252.014-.374.014-.164 0-.335-.02-.498-.02-.252 0-.498.02-.75.027-.184.007-.368.007-.552.014a5.956 5.956 0 0 0-.368.026c-.054.007-.102.028-.17.048-.021 0-.069-.007-.11 0-.068.014-.129.055-.198.069-.102.02-.13.047-.116.15v.068c-.006.014.15-.02.15-.02-.013 0-.02.04-.04.074l.122-.047c.103.048.191.02.273.041.266.068.538.096.81.123.178.014.349.02.526.027.252.014.504.027.756.027.212 0 .416-.02.627-.02.293 0 .586.013.88.02.06 0 .13-.007.197-.007h.498c.443-.013.886-.02 1.33-.034.252-.007.51-.02.763-.027l.777-.021c.3-.007.6-.007.893-.013.225 0 .443-.008.669-.014.252-.007.51-.027.763-.04.136-.008.273-.022.41-.035.163-.014.333-.034.497-.04.245-.015.497-.021.743-.035.307-.02.613-.048.927-.055.286-.013.58-.006.866-.013.252-.007.505-.02.763-.028l.43-.02s.287-.007.43-.021c.245-.013.49-.04.736-.047.157-.008.314 0 .47-.008.252-.006.511-.02.764-.02.095 0 .197.014.32.02-.055.049-.089.076-.13.11.027.007.055.02.082.034a.184.184 0 0 1-.109.034c-.014.034-.027.048-.041.116h.123c-.048 0-.089.062-.137.103-.054-.014-.102 0-.13.075.049.027.042.047.035.075-.082.027-.143.055-.109.143-.027.014-.061.027-.096.048-.033.054-.095.068-.081.143.027.007.054.02.075.027-.035.014-.068.034-.103.048-.122.075-.067.11-.04.143a.282.282 0 0 1-.062.035c.014.06.034.075.041.075a1.93 1.93 0 0 0-.102.082c-.021.061-.048.088-.075.13-.028.04-.041.095-.076.136-.143.157-.245.342-.429.464-.068.048-.13.11-.19.171-.123.116-.233.246-.362.356-.17.143-.347.272-.532.402-.224.157-.45.314-.674.465-.123.081-.26.143-.389.218l-.382.218c-.082.055-.157.13-.245.171-.225.096-.464.178-.695.267-.226.096-.39.177-.56.239a3.85 3.85 0 0 1-.483.13c-.055.013-.117 0-.178.006-.116.02-.232.048-.348.062-.3.04-.6.068-.9.11-.177.02-.347.054-.525.074-.122.007-.252-.006-.374-.006-.09 0-.184.02-.273.007-.143-.021-.287-.055-.43-.082-.033-.007-.082-.021-.109-.007-.054.027-.102-.014-.157 0-.034.007-.068-.02-.102-.02-.027-.007-.062.006-.096 0-.075-.02-.143-.048-.225-.041-.081.006-.163-.035-.251-.055l-.362-.082a.615.615 0 0 1-.136-.061c-.177 0-.293-.007-.403-.048-.095-.034-.184-.082-.286-.068-.027.006-.047-.007-.075-.007-.02-.027-.04-.082-.06-.082-.137.007-.219-.109-.335-.143-.061-.021-.109-.09-.17-.11-.15-.061-.273-.19-.443-.211-.055-.007-.109-.035-.17-.055.02.027.033.048.054.068-.198-.096-.382-.204-.566-.307-.027-.007-.047-.034-.068-.048l-.184-.123c-.102.021-.143-.02-.17-.034-.185-.13-.396-.212-.573-.355-.075-.062-.163-.103-.218-.178a1.076 1.076 0 0 0-.341-.266c-.102-.054-.197-.116-.293-.177-.048-.035-.096-.075-.096-.15 0-.049-.02-.096-.081-.07-.027-.04-.055-.088-.089-.101-.082-.034-.136-.096-.197-.15-.062-.055-.11-.13-.184-.157-.137-.055-.219-.171-.3-.267-.192-.225-.362-.471-.54-.71-.013-.02-.04-.034-.06-.055.027.076.06.137.095.205a.408.408 0 0 1-.157-.123c-.007.007.47.792.47.792.042.062.076.123.117.185a.21.21 0 0 1-.205-.11c-.061-.108-.13-.177-.266-.163a1.19 1.19 0 0 1-.034-.15c-.027 0-.048 0-.095-.007.095.15.177.28.266.43-.035-.02-.055-.034-.069-.04.122.129.211.293.368.375.034.157.211.232.252.382l-.096-.02c-.054-.069-.116-.137-.177-.212a.341.341 0 0 0 .061.123c.082.102.157.205.253.293.034.035.082.049.082.11.054.028.075.034.095.034.014.042-.006.103.075.09.054.102.109.102.184.068.089.088.137.096.198.041 0 .034.007.068.007.096.027-.014.02-.035.02-.069.034.027.055.041.068.055.068.095.13.184.225.26.13.109.246.225.368.327.239.198.505.362.77.512.328.185.642.383.976.56a5.25 5.25 0 0 0 1.274.458c.164.034.32.068.485.109.142.041.286.103.429.137.218.048.443.089.661.13l.15.02c.061.014.136-.014.15.007.034.054.061.027.102.02.048-.014.102-.014.157-.014.19.007.375.048.566.035.041 0 .102-.035.136.033.061-.027.096-.027.123-.033.007.06 0 .06-.013.068-.014.006-.034.013-.062.034.246.047.477.054.682 0 .355.027.661-.014.954-.116.028.034.048.082.089.013.014-.02.048-.027.075-.034.061-.014.136-.041.19-.02.063.02.083-.035.13-.035.083 0 .157-.006.232-.02.041-.007.082-.027.13-.041a.33.33 0 0 0-.15-.035c.082-.04.157-.075.232-.108-.014.02-.028.047-.055.047h.095c-.02 0-.047.061-.081.102l.688-.17c-.075-.144.082-.096.136-.178-.068.02-.136.041-.204.055.231-.116.47-.219.702-.321-.034.04-.076.061-.136.096.04.006.068.006.088.013.109.034.082-.068.116-.13.13 0 .184-.02.245-.04.068-.021.137-.042.205-.069.109-.048.211-.109.32-.163.02-.008.055 0 .082 0 .075-.048.102-.09.122-.083.096.014.164-.02.191-.108.048-.035.082-.062.116-.083.15-.082.293-.164.443-.245.054 0 .082 0 .095-.008.09-.041.171-.088.253-.136a.688.688 0 0 1-.068-.034.886.886 0 0 0 .13-.034c.162-.192.388-.322.558-.472.075-.007.075-.027.075-.04.027-.035.055-.076.088-.103.15-.137.314-.253.45-.396a9.88 9.88 0 0 0 .566-.615c.163-.192.327-.383.464-.594.19-.294.354-.595.525-.902.122-.218.231-.437.354-.655.013-.021.041-.048.061-.048.184-.021.369-.034.546-.055.041-.006.089-.033.13-.054-.021-.034-.035-.075-.055-.11-.027-.041-.068-.075-.096-.116-.027-.034-.047-.075-.067-.116-.021-.034-.041-.061-.062-.096a2.47 2.47 0 0 1-.117-.232c-.006-.02-.02-.054-.013-.075.123-.266.17-.553.286-.82.116-.272.15-.58.205-.873.048-.28.075-.56.109-.84.02-.198.048-.39.054-.587.042-.314.028-.608.02-.902-.006-.26-.02-.526-.033-.785v-.001ZM8.951 23.616c-.048-.054-.089-.116-.137-.17l.021-.02c.074.081.15.163.224.252-.04-.02-.088-.034-.108-.062Zm.108.062c.021-.007.042-.007.062-.014.02.034.034.075.054.116-.095-.007-.143-.048-.115-.102Zm7.09 2.82v-.02l.382-.041v.02c-.13.02-.252.034-.381.04v.001Zm1.718-.177c-.095.02-.197.034-.293.048-.034.007-.075.041-.088-.02-.014.006-.028.006-.041.013.034.102.116.02.184.061-.15.021-.293.035-.436.055v-.014l.13-.02v-.02a1.995 1.995 0 0 0-.206-.014c-.02 0-.047.027-.067.034-.028.007-.055.014-.089.014-.116.006-.232.006-.34.013-.008 0-.022-.007-.028-.007v-.02l1.363-.184c.007.013.007.027.014.04-.041 0-.068.015-.103.021Zm.103-.068c.157-.02.3-.034.45-.055-.314.09-.416.103-.45.055Zm-5.938-13.788c.218-.3.443-.601.661-.909.068-.089.123-.184.19-.273.022-.028.049-.041.083-.069l-.007-.013c.027-.034.054-.062.068-.089.035-.054.055-.116.082-.177a.099.099 0 0 1 .028-.027c.095.048.095-.054.13-.089.06-.068.122-.143.176-.212.041-.054.082-.102.116-.163.007-.021-.013-.055-.02-.082h-.02c.02-.014.04-.034.06-.048.008 0 .008 0 .014-.007a2.934 2.934 0 0 1 .388-.491 1.266 1.266 0 0 1-.04.095c.007 0 .007.007.013.007.082-.11.17-.212.253-.321-.007-.007-.014-.014-.021-.014-.034.035-.061.069-.095.103-.007-.007-.014-.014-.021-.014.069-.089.137-.177.205-.28.013.021.027.048.054.103.028-.068.055-.116.075-.164-.02.02-.047.04-.068.062l-.02-.021.122-.184c.13-.185.26-.376.389-.56.048-.069.109-.123.15-.192.13-.259.334-.464.49-.703.035-.048.083-.089.124-.13.033-.041.061-.027.088.007.184.232.368.471.552.703.137.172.273.335.402.513.157.218.307.437.464.655.177.253.355.506.525.765.26.383.504.765.764 1.147.19.28.381.553.565.833h-.348c-.32-.006-.648-.033-.968-.02-.436.02-.879.069-1.315.103-.553.048-1.111.054-1.663.054-.198 0-.396.028-.594.042-.238.013-.47.027-.709.033a33.1 33.1 0 0 1-.831.028c-.157.007-.32 0-.491 0v-.001Zm7.819 3.14v.062c-.007 0-.014.007-.027.007-.027-.095-.055-.198-.089-.294a2.292 2.292 0 0 0-.266-.574c-.137-.19-.259-.388-.396-.586-.033-.048-.082-.09-.122-.13-.144-.157-.287-.321-.471-.437a5.555 5.555 0 0 0-.852-.438 1.907 1.907 0 0 1-.239-.123h.164l1.165-.02c.253-.007.498-.007.75-.02.061 0 .096.02.13.075.061.102.122.204.19.307.008.014.021.034.021.055 0 .15 0 .307.007.457.006.157.02.308.027.465 0 .157-.014.32-.007.484.007.233.014.472.014.71Zm-7.335-2.286c.32-.014.627-.034.94-.048.245-.014.498-.02.743-.034.102-.007.198-.013.3 0-.109.055-.218.11-.314.178-.122.082-.238.19-.36.28a2.043 2.043 0 0 0-.335.314c-.13.156-.273.293-.41.443-.095.11-.204.212-.286.328-.115.15-.218.314-.327.485.034-.65.075-1.29.048-1.947v.001Zm4.451 6.57c-.218.054-.442.116-.668.143-.19.027-.388.02-.586.02-.178 0-.348-.006-.525-.02-.198-.02-.396-.04-.587-.13-.164-.075-.334-.143-.497-.225a1.315 1.315 0 0 1-.45-.328c-.089-.11-.212-.198-.321-.294a.32.32 0 0 0 .143.198c-.034.041-.082.021-.15-.089-.02.014-.04.021-.054.028.02-.048.04-.096.061-.137-.027-.054-.061-.116-.089-.17a5.843 5.843 0 0 1-.156-.274c-.014-.02-.014-.04-.028-.061a1.54 1.54 0 0 1-.095-.123c-.055-.082-.102-.17-.17-.253 0 .021.006.041.006.069-.007 0-.013.007-.013.007l-.144-.349c-.007 0-.007 0-.013.007l.122.45c-.007 0-.013.007-.02.007a.413.413 0 0 1-.055-.088c-.013-.055-.054-.055-.088-.034-.02.014-.034.061-.027.082.047.116.102.232.156.348a.807.807 0 0 0 .048.116c.007.014.028.027.028.048.027.054.048.109.082.157.06.082.129.164.19.245.061.082.116.172.17.253.007.014.028.014.034.02.034.103.15.178.232.137.02.157.191.212.26.362a3.072 3.072 0 0 1-.198-.089c-.007.007-.007.014-.014.028.081.04.163.082.238.13.069.04.137.081.198.129a.621.621 0 0 0 .293.143.068.068 0 0 0-.013-.027c.19.088.388.184.538.259-.709.014-1.466.027-2.25.041 0-.13-.006-.253-.006-.382 0-.055.013-.103.006-.157-.02-.314-.02-.628-.061-.936a6.7 6.7 0 0 1-.034-.977c.006-.177-.007-.361-.014-.539 0-.239 0-.472.007-.71 0-.034.014-.061.028-.096h.02c.007.014 0 .035.013.042.021.02.055.054.069.047.04-.027.102-.054.116-.096a.67.67 0 0 0 .047-.252c0-.061.028-.102.055-.143.014-.021.02-.041.034-.068-.027-.021-.054-.035-.088-.062.027-.075.02-.164.123-.205.013-.007.013-.041.02-.061l.02-.171c.014.02.021.027.034.04a.108.108 0 0 1 .014-.02c0-.027-.006-.082 0-.082.082-.014.048-.102.089-.143.006-.008-.007-.028-.007-.042 0-.013 0-.034.007-.034.095-.02.081-.123.143-.17.02-.014.027-.034.054-.069.055.096-.04.144-.048.212.116-.068.15-.232.082-.28a.405.405 0 0 0 .075-.075c.075-.082.157-.157.225-.24.048-.06.075-.136.123-.197.027-.034.082-.061.123-.082a.83.83 0 0 0 .313-.26c.014-.013.034-.026.054-.04.021-.014.062-.014.069-.034.007-.014-.014-.048-.027-.069.027-.013.054-.04.108-.068-.02.041-.027.069-.04.096l.033.034c.062-.048.157-.103.219-.143 0-.007-.035-.034-.035-.034-.04.02-.102.054-.163.082.013-.021.013-.034.02-.041.096-.062.191-.123.294-.171.238-.109.477-.218.715-.32.041-.021.096-.008.144-.008.02 0 .033 0 .054-.006.109-.034.218-.069.327-.096a.57.57 0 0 1 .15-.02c.204.006.409.006.613.02.089.007.17.027.253.054.102.035.21.082.306.13.116.062.225.13.335.205.197.13.381.273.579.39.19.115.34.272.463.45.15.212.321.403.39.662l.101.451c.02.082.069.164.048.26-.034.17-.062.348-.089.519-.013.069-.027.137-.02.204.013.213-.069.397-.15.588-.028.062-.069.123-.103.192a.206.206 0 0 0 .055.027l.061-.123c.007 0 .007 0 .014.007-.034.096-.061.198-.096.294-.081.212-.163.43-.265.635-.055.116-.15.211-.218.321-.068.095-.123.198-.191.287-.062.075-.123.15-.205.204a5.219 5.219 0 0 1-.572.383 1.429 1.429 0 0 1-.402.15h.001Zm-3.633-.363-.007.007c-.014-.007-.035-.014-.048-.028l-.164-.246a.078.078 0 0 1-.013-.068c.075.116.15.226.232.335Zm4.24.935c.307-.13.56-.313.79-.525a.714.714 0 0 1 .11-.096c.286-.177.497-.424.688-.697.219-.314.362-.669.54-1.003a.723.723 0 0 1 .04-.076c-.014.779.075 1.544.177 2.316l-2.345.081Zm6.913-.205c-.007.014-.021.028-.027.042-.008-.014-.008-.035-.014-.062-.041.11-.13.055-.191.055-.368.007-.743.007-1.111.007-.355 0-.716 0-1.07.006-.117 0-.24.027-.355.034-.28.014-.56.02-.839.027-.02 0-.04-.033-.075-.06a.47.47 0 0 1-.04.06c-.008-.013-.021-.026-.035-.047a.385.385 0 0 1-.02.054h-.02c-.014-.095-.041-.183-.041-.28 0-.204.02-.409.027-.614.007-.095 0-.184 0-.273l.075.054a.582.582 0 0 1 .04-.067s-.013-.007-.027-.02c.013-.008.027-.022.027-.028.007-.021.021-.041.021-.055 0-.048-.014-.089-.02-.13.006 0 .013 0 .02-.007l.04.205h.021c-.027-.047.062-.088-.013-.143-.007-.007.006-.048.006-.068-.02-.041-.033-.082-.054-.137a.17.17 0 0 1 .048-.02c-.027-.014-.048-.027-.068-.034.068-.062.068-.096.006-.164.014-.007.028-.007.028-.013 0-.062 0-.123-.014-.184-.014-.069.021-.15-.082-.192a.2.2 0 0 0 .028.055s-.021.007-.041.02c-.089-.082-.034-.192-.055-.314.048.014.082.027.116.041-.014-.048-.048-.103-.068-.164h-.028v-.45c0 .006.048.006.075.013 0-.007.007-.013.007-.02-.02-.028-.048-.055-.075-.09l.013-.013c-.054-.068-.027-.163-.027-.184v-.478c.069.068-.033.157.069.198v-.068h-.007c-.007-.103-.007-.205-.014-.308h-.013c-.007.014-.007.021-.014.035h-.014l.041-1.632c.068.088.143.17.19.259.158.287.362.533.553.792.164.226.314.472.464.704.184.28.36.56.545.84.136.211.28.423.422.628.13.184.267.362.403.54.116.157.238.314.354.47.137.192.273.383.41.568.067.095.142.19.217.286.041.055.103.096.143.13-.006 0-.013 0-.026-.007.02.027.033.048.047.061.075.041.082.082.041.144v-.002Zm.347-1.706v-.048c0 .013.007.034 0 .048Zm.232-3.012c-.007 0-.047-.041-.054-.048-.007.02 0 .041-.014.069-.007-.02-.054-.014-.054-.034-.007.095.04.19.033.287.021-.014.103-.021.123-.041.007.006.02.013.027.013-.136.103-.102.205-.04.321.013.027.054.082.013.137-.013.013.007.054.014.089h.02v.012l-.062.021c-.013-.02-.095-.06-.095-.096v.35c.068.02.068.115.096.163a.201.201 0 0 0 .027-.054l.007.006c-.007.041-.013.082-.027.123-.014.061-.027.116-.034.177 0 .007.013.021.013.028-.075.17-.034.361-.06.539-.021.13 0 .267-.014.403a3.415 3.415 0 0 1-.069.355c-.007.02-.02.027-.054.04a.553.553 0 0 0-.007-.21c-.008 0-.096-.049-.103-.049 0 .096.054.226.075.335-.02-.007-.102-.055-.109-.055-.014.082-.014.192-.02.28-.008.069-.069.13-.076.205 0 .041.048.068.041.137h.055c0-.137.061-.26.061-.403h.02c.008.014.028.027.021.034-.013.075-.041.157-.034.232 0 .041.034.082.02.13a.666.666 0 0 0-.027.144c-.007-.035-.014-.048-.014-.069l-.075-.007c-.007.041.048.082.041.116-.007.007-.013.007-.027.014l-.225-.328a69.99 69.99 0 0 1-.532-.785 1.635 1.635 0 0 1-.123-.205 9.57 9.57 0 0 0-.702-1.045c-.197-.252-.355-.526-.539-.792-.17-.252-.34-.498-.51-.751-.062-.082-.137-.157-.192-.246-.177-.28-.334-.567-.51-.847-.15-.232-.314-.457-.47-.683-.055-.075-.11-.157-.165-.239a.094.094 0 0 1-.013-.047c-.014-.15-.028-.3-.034-.444 0-.136.013-.273.013-.417v-.122c0-.035.007-.062.007-.096.006-.007.013-.02.02-.027-.197 0-.402-.008-.6 0-.13.006-.198-.048-.286-.144-.26-.294-.45-.628-.675-.942-.211-.301-.43-.595-.648-.888-.177-.24-.354-.472-.531-.71-.198-.274-.389-.547-.594-.82a98.632 98.632 0 0 0-.75-.983c-.116-.15-.246-.294-.375-.451.089.014.17.027.252.034l.328.021c.245.02.49.034.735.067.205.028.41.07.621.103.45.075.893.198 1.323.342.252.082.497.19.743.293.552.226 1.077.499 1.595.785.164.09.26.233.382.363.177.184.355.368.525.56.197.225.381.457.572.69.17.204.347.409.518.614.055.061.096.136.143.205.11.164.232.32.328.498.067.13.108.28.156.424.068.212.136.416.205.628.047.157.088.321.122.485.027.11.02.225.054.334.042.144 0 .3.042.444.006.014.013.035.02.048.027.027.048.055.007.096-.007.007-.007.033 0 .054.014-.013.02-.027.034-.047 0 .013.007.02.007.027 0 .027-.007.054 0 .081 0 .014.013.034.02.048.014-.014.027-.02.054-.041.062.232.069.464.069.703 0 .226.04.451-.055.67.02-.076-.027-.144-.007-.213l.003.002Z"/><path fill-rule="evenodd" clip-rule="evenodd" d="M20.71 18.194c.007 0 .014.007.014.007l-.007-.008c0-.006 0-.006-.007 0v.001Zm1.077 6.748a.646.646 0 0 1-.245.122c-.008-.006-.008-.013-.015-.02.076-.048.157-.096.232-.144.007.013.021.027.028.041ZM9.005 15.688c.075-.095.15-.191.232-.287.006.007.06.021.067.028-.075.095-.177.225-.252.327-.014-.013-.034-.061-.048-.068h.001Zm-1.936 3.347c-.055-.116-.11-.24-.164-.355a.235.235 0 0 1 .062-.028c.075.109.108.239.163.355 0 0-.054.027-.061.027Zm1.738-3.279-.122.192c-.007-.007-.082.027-.089.02.04-.061.143-.17.184-.232a.086.086 0 0 0 .027.02Zm12.25 9.466c.007 0 .007-.007.014-.007.048.007.102.014.157.014-.09.061-.144.054-.17-.007ZM8.82 16.043a.286.286 0 0 1 .035-.061c.013 0 .033-.007.033-.007.028-.048.028-.082.055-.123-.006-.007-.013-.007-.02-.014-.041.028-.082.063-.123.09.014.013.014.02.014.034-.055-.007-.075.02-.102.095-.007.021-.041.028-.076.055-.006.014-.013.048-.027.082l.007.007a.092.092 0 0 1-.034.02c-.041.041-.089.076-.13.117-.006.02-.013.04-.013.061.048-.048.13-.137.19-.191l.008.007c.027-.041.048-.082.075-.123.007.007.007.014.013.02l-.06.171c-.015.007-.036.02-.036.014-.027.02-.047.047-.075.068l-.122.082c-.068.061-.137.116-.212.177-.047.076-.095.144-.15.233.082-.021.103.013.096.082.095.013.102-.062.13-.116.006-.014.013-.042.027-.049.061-.054.13-.102.197-.156.014-.014.014-.042.014-.062 0-.007-.034-.007-.055-.014.062-.068.15-.184.212-.259.034-.02.068-.048.068-.069-.007-.075.04-.095.095-.122-.027-.021-.034-.041-.034-.048Z"/><path fill-rule="evenodd" clip-rule="evenodd" d="M8.957 15.968c-.027.047-.054.088-.082.136l-.04-.02c-.028.156-.123.293-.219.32.028.014.055.027.076.02.02-.006.033-.04.047-.061l.184-.266.062-.103-.028-.027Zm-2.27 2.997c.034 0 .069.007.11.007 0-.027.034-.02.034-.048h.02c0 .035.007.062.007.096h-.143c-.007-.007-.034-.048-.028-.055Zm-.054-.314c-.02-.02-.055-.04-.055-.061-.007-.027.014-.061.034-.095.014.047.02.088.034.136-.007.007-.013.014-.013.02Zm.17-.437.082.213a.213.213 0 0 0-.054.027c-.027-.069-.062-.144-.089-.212a.17.17 0 0 1 .062-.027Zm15.175 6.53c.034-.014.075-.021.13-.035-.062.048-.11.082-.15.123-.007-.007-.014-.014-.02-.014.013-.027.027-.047.04-.075ZM13.6 10.313c.04-.028.075-.049.116-.076l.014.014c-.042.054-.076.109-.123.177-.007-.047-.007-.075-.014-.109-.007 0 0 0 .007-.006Zm1.998 3.455.197-.09c-.007.042-.007.07-.007.097a.24.24 0 0 0-.068-.014c-.04.007-.116.061-.15.068-.007 0 .028-.054.028-.061Zm5.113 5.79c.014.069.143.103.014.171.02.014.04.02.06.035 0 .007-.006.02-.013.027-.013.007-.04.02-.054.013-.007 0-.02-.027-.02-.04 0-.062.006-.123.013-.205Z"/></svg>