<svg width="32" height="32" fill="none" xmlns="http://www.w3.org/2000/svg"><path d="m11.823 18.58 6.98-6.965a.3.3 0 0 1 .424.002l1.67 1.69a.3.3 0 0 1-.001.423l-6.932 6.965a.3.3 0 0 1-.423.002l-1.716-1.692a.3.3 0 0 1-.002-.426Zm-2.912-5.052-1.239-1.28-1.281 1.28 1.281 1.254 1.24-1.254Zm3.593-3.662-1.239-1.281-1.281 1.28 1.281 1.254 1.24-1.253Zm2.451-2.451-1.253 1.267 1.253 1.17-1.253 1.253 1.253 1.24 1.24-1.247 1.035 1.027 1.222-1.201-1.018-1.072-2.479-2.437Z" fill="#000"/><path d="m13.716 13.584-2.451-2.479L10.08 12.4l2.437 2.368-1.253 1.197-1.184-1.197-1.211 1.197 2.284 2.34 4.734-4.888L14.9 12.4l-1.183 1.184Z" fill="#000"/><path fill-rule="evenodd" clip-rule="evenodd" d="M21.262 11.953c-.094 0-.371.274-.371.274l-.536-.602.497-.426c.105-.12.75-.133.914.043l2.02 1.973c.128.14.155.836 0 .976 0 0-4.134 3.996-4.134 4.45 0 .453.871 1.109.871 1.109l.457-.297c.305-.142.715-.082.899.113l3.594 3.57c.148.173.183.84-.02 1.06l-1.078 1.073c-.142.12-.753.115-.906 0l-3.723-3.722c-.121-.14-.078-.868-.031-.93l.219-.297-1.137-1.195c-.227-.29-.074-.95 0-1.02 0 0 4.13-3.941 4.13-4.39 0-.502-1.532-1.762-1.665-1.762Zm-.512 8.559c-.19.176-.33.298-.363.554-.072.536 3.464 3.54 3.564 3.54.434 0 .829-.553.904-.941.02-.104-3.107-3.477-3.527-3.477-.259 0-.389.147-.578.324Z" fill="#000"/></svg>