<svg width="32" height="32" fill="none" xmlns="http://www.w3.org/2000/svg"><path d="m23.85 13.572-.621.84h4.028l-3.08 4.983h3.832L20.268 22.7l-3.871-3.306h3.187l1.866-2.819h-4.224L19.4 13.56l4.45.01ZM11.808 10.12c.898 0 1.663.175 2.295.526.643.338 1.123.803 1.438 1.395.328.58.492 1.215.492 1.904 0 .761-.206 1.45-.619 2.067-.413.616-1.014 1.07-1.803 1.36l2.787 5.22H11.88l-2.222-4.55H8.165v4.55H4.14V10.12h7.668Zm-3.643 5.148h2.64c.316 0 .584-.109.803-.326.218-.23.327-.508.327-.834 0-.326-.109-.598-.328-.816a1.093 1.093 0 0 0-.801-.326h-2.64v2.302Zm16.306-2.538h-4.472l.68-.944h4.488l-.696.944Zm1.29-1.75h-4.5l.62-.86h4.516l-.635.86Z" fill="#000"/></svg>