<svg width="32" height="32" fill="none" xmlns="http://www.w3.org/2000/svg"><path fill-rule="evenodd" clip-rule="evenodd" d="M30 12.888v.137a17.63 17.63 0 0 0-1.621.962c-.338-.694-.879-1.03-1.622-1.007-.914.022-1.512.496-1.794 1.42-.242 1.143.126 1.975 1.103 2.495.984.31 1.77.027 2.356-.847.531.3 1.057.606 1.578.916v.138c-1.04 1.603-2.468 2.19-4.28 1.763-1.25-.393-2.093-1.24-2.53-2.542-.49-1.857-.035-3.392 1.362-4.603 1.138-.77 2.348-.922 3.632-.458.771.34 1.377.881 1.816 1.626ZM19.003 8h.417c.819.22 1.337.737 1.554 1.552.023 3.15.03 6.299.023 9.448-.717-.007-1.281-.296-1.693-.867a2.203 2.203 0 0 1-.278-.685c-.023-3.15-.03-6.299-.023-9.448Zm-1.006 15h-.566c-.84-.246-1.38-.79-1.621-1.632a202.578 202.578 0 0 1-.103-6.325c-.289-1.139-1.026-1.751-2.213-1.837-1.547.194-2.284 1.06-2.213 2.602.261 1.176.999 1.805 2.213 1.887a2.603 2.603 0 0 0 1.235-.357 64.3 64.3 0 0 0-.026 2.448c-2.097.41-3.77-.236-5.017-1.938-1.008-1.8-.905-3.534.309-5.203 1.665-1.759 3.594-2.107 5.789-1.046 1.268.783 1.998 1.914 2.187 3.393.026 2.669.034 5.338.026 8.008ZM2 17.277v-.137a87.74 87.74 0 0 1 1.61-.914c.42.823 1.075 1.12 1.964.89.373-.11.513-.36.42-.753l-.2-.205a28.001 28.001 0 0 0-2.073-.73c-1.29-.577-1.708-1.559-1.258-2.947.437-.847 1.121-1.326 2.052-1.438 1.426-.202 2.537.308 3.331 1.53.03.038.023.068-.022.091-.512.307-1.034.596-1.566.868-.37-.64-.907-.861-1.61-.662-.535.35-.52.685.043 1.004.567.204 1.141.387 1.721.548 1.337.522 1.83 1.504 1.478 2.946-.298.735-.82 1.215-1.566 1.439a4.33 4.33 0 0 1-2.824-.092A3.049 3.049 0 0 1 2 17.277Z" fill="#000"/></svg>