<svg viewBox="0 0 32 32" xmlns="http://www.w3.org/2000/svg"><path fill-rule="evenodd" clip-rule="evenodd" d="M16 8.929c-3.181 0-5.17 1.571-5.964 4.714 1.193-1.572 2.584-2.16 4.175-1.768.907.224 1.556.875 2.274 1.595 1.17 1.172 2.523 2.53 5.48 2.53 3.18 0 5.169-1.571 5.964-4.714-1.193 1.571-2.585 2.16-4.175 1.768-.908-.224-1.556-.875-2.274-1.595-1.17-1.173-2.524-2.53-5.48-2.53ZM10.036 16c-3.181 0-5.17 1.571-5.965 4.714 1.193-1.571 2.585-2.16 4.175-1.768.908.225 1.556.875 2.274 1.595 1.17 1.173 2.523 2.53 5.48 2.53 3.181 0 5.17-1.571 5.964-4.714-1.192 1.572-2.584 2.16-4.175 1.768-.907-.224-1.556-.875-2.274-1.595-1.17-1.172-2.523-2.53-5.48-2.53Z"/></svg>