<svg width="32" height="32" fill="none" xmlns="http://www.w3.org/2000/svg"><path fill-rule="evenodd" clip-rule="evenodd" d="M24.924 10.481A937.867 937.867 0 0 0 15.425 5a2.17 2.17 0 0 1-.56.375 27.21 27.21 0 0 0 0 2.854 300.128 300.128 0 0 0 6.955 4.054l.075 8.185a85.46 85.46 0 0 1 2.056 1.238.803.803 0 0 0 .45.15 6.2 6.2 0 0 1 .56-.337c.062-3.68.05-7.359-.037-11.038Zm-4.04 2.328a897.046 897.046 0 0 0-9.498-5.481c-.15.15-.325.276-.523.375a.545.545 0 0 0 .15.188 562.464 562.464 0 0 1 9.236 5.369l.075 10.962a3.66 3.66 0 0 0 .598-.375c.063-3.68.05-7.359-.037-11.038ZM9.742 8.304a259.866 259.866 0 0 1 9.61 5.48c.05 3.655.05 7.309 0 10.963a2.699 2.699 0 0 1-.635.376l-.15-11.038-9.199-5.293c-.071-.054-.083-.117-.037-.188a1.22 1.22 0 0 0 .411-.3Zm7.965 6.382A362.087 362.087 0 0 0 8.17 9.205c-.156.142-.33.267-.523.375a584.54 584.54 0 0 0 9.386 5.482c.013 3.654.05 7.308.112 10.962l.524-.263c.087-3.686.1-7.378.037-11.075Zm-11.18-4.505a.985.985 0 0 1 .597.187c.603.377 1.214.74 1.833 1.09.062.901.05 1.802-.038 2.702a2.003 2.003 0 0 0-.448.263.498.498 0 0 1-.45-.075 77.914 77.914 0 0 1-1.981-1.164c-.062-.902-.05-1.803.037-2.703.155-.102.304-.202.45-.3Zm9.572 5.406a341.093 341.093 0 0 0-5.908-3.379c-.163.152-.35.277-.561.376a16.32 16.32 0 0 0 .037 2.703l5.834 3.379a3.51 3.51 0 0 1 .598-.338c.1-.91.1-1.823 0-2.74ZM6.6 14.311c.78.404 1.553.83 2.318 1.276.088.9.1 1.801.038 2.703-.218.116-.43.241-.636.376-.746-.423-1.494-.849-2.244-1.277-.087-.9-.1-1.8-.037-2.703.185-.136.372-.261.56-.375Zm3.814 2.14a.63.63 0 0 0-.299-.038 4.6 4.6 0 0 1-.486.375 23.09 23.09 0 0 0 0 2.628 647.64 647.64 0 0 0 5.721 3.342 1.51 1.51 0 0 0 .748-.263c.088-.9.1-1.801.038-2.703a613.295 613.295 0 0 0-5.722-3.341Zm-3.889 2.064c.161-.01.31.028.449.113.642.416 1.303.804 1.982 1.163.062.902.05 1.803-.038 2.703a2.003 2.003 0 0 0-.448.263.715.715 0 0 1-.599-.15 67.167 67.167 0 0 1-1.832-1.089c-.062-.902-.05-1.803.037-2.703.173-.075.323-.175.45-.3Zm9.573 5.407a358.117 358.117 0 0 0-5.908-3.38c-.163.152-.35.277-.561.376a16.32 16.32 0 0 0 .037 2.703L15.5 27c.203-.105.402-.218.598-.338.1-.909.1-1.822 0-2.74Z" fill="#000"/></svg>