<svg width="32" height="32" fill="none" xmlns="http://www.w3.org/2000/svg"><path d="M8.676 5.835c2.31-2.226 8.348-3.016 9.934-2.201 1.637.843 6.671 7.25 5.726 8.824-1.575 2.62-4.253 4.543-4.767 4.937l7.392 7.919c.096.029.157.086.17.18.919 1.579-3.173 3.994-4.066 3.132.006.012.01.025.017.036l-6.866-8.973c.06.693-3.506 2.37-5.13 2.51a.704.704 0 0 1-.38 0c-2.114-.26-5.894-4.587-6.35-6.34-.811-3.135 3.324-8.921 4.108-9.804l.212-.22Zm3.266 8.468c.305-.537-1.187-2.337-1.604-1.885-.416.453-.64 1.133-1.653 2.739-.17.268-1.233-1.778-1.315-.705-.083 1.074.343 3.156.564 3.32-.004.208 2.817.527 2.817.177 0-.66-.71-.881-.71-1.238.001-.357 1.415-1.555 1.9-2.408Zm6.27-8.714c-.008-.565-6.543.445-6.072 1.852.87 2.595 4.093 5.685 4.589 5.685.867.372 5.22-1.553 5.198-2.475.468.076-2.922-4.932-3.715-5.062Z" fill="#000"/><path d="m18.412 10.196.036.122.014.04.008.023.007.017.008.02a.712.712 0 0 0 .078.143l.03.05.021.031a.339.339 0 0 1 .023.035l.012.02c.01.017.02.033.027.05l.015.033.035.075.018.036a.865.865 0 0 1 .016.034l.028.065a.351.351 0 0 0 .026.051l.029.054.014.029.026.055.013.025.013.026a1.025 1.025 0 0 1 .07.132l.023.043.023.044c.012.024.026.048.04.071l.003.006.004.006.003.006.003.007.004.007a.104.104 0 0 1 .007.017.07.07 0 0 1 .003.01l.003.007.004.009a.298.298 0 0 1 .01.025l.012.036m-1.55-1.197.113-.068.046-.028a.66.66 0 0 1 .041-.026l.04-.023a1.02 1.02 0 0 1 .078-.045l.043-.022.082-.043.041-.021.04-.021.076-.038.04-.02c.052-.026.105-.053.156-.082l.075-.038c.048-.024.098-.047.15-.066l.078-.032.104-.039.028-.011.05-.02.045-.017a.346.346 0 0 1 .027-.009l.016-.006.018-.008.07-.036m1.286-.416a4.52 4.52 0 0 0-.12-.057l-.025-.011a.35.35 0 0 0-.134-.021H20a.33.33 0 0 0-.093.024.461.461 0 0 0-.216.19l-.031.048a.686.686 0 0 0-.07.138.632.632 0 0 0-.033.212 2.829 2.829 0 0 0-.002.117c0 .018.002.037.005.056.01.051.03.1.058.144.015.024.032.048.05.07.01.013.02.025.032.036l.014.01a.2.2 0 0 0 .036.017.343.343 0 0 0 .077.016h.067a.705.705 0 0 0 .176-.052l.055-.025.058-.027a1.06 1.06 0 0 1 .175-.062c.037-.008.075-.015.113-.02l.053-.008a1.05 1.05 0 0 1 .172-.014h.043l.012.003a.355.355 0 0 1 .102.06l.01.01a.035.035 0 0 1 .009.01l.009.018.011.023a.29.29 0 0 1 .035.123 1.065 1.065 0 0 1-.001.11 1.098 1.098 0 0 1-.038.133.658.658 0 0 1-.438.416 1.424 1.424 0 0 1-.153.033l-.1.01-.043.003-.036.003-.034.002-.076.004a1.04 1.04 0 0 1-.14 0h-.019a.107.107 0 0 1-.03-.009l-.034-.013" stroke="#000" stroke-width=".352" stroke-linecap="round"/></svg>