<svg viewBox="0 0 32 32" xmlns="http://www.w3.org/2000/svg"><path d="M15.992 9.322A6.685 6.685 0 0 0 9.314 16a6.685 6.685 0 0 0 6.678 6.677A6.685 6.685 0 0 0 22.669 16a6.685 6.685 0 0 0-6.677-6.678Zm0 10.133a3.455 3.455 0 1 1 0-6.91 3.455 3.455 0 0 1 0 6.91Z"/><path fill-rule="evenodd" clip-rule="evenodd" d="M16.552 8.226V5.732c5.419.29 9.723 4.777 9.723 10.268 0 5.49-4.304 9.976-9.723 10.267v-2.493c4.038-.289 7.236-3.663 7.236-7.774 0-4.111-3.198-7.486-7.236-7.774Zm-6.45 12.872a7.764 7.764 0 0 1-1.883-4.539H5.725a10.24 10.24 0 0 0 2.612 6.303l1.765-1.764Zm5.33 5.169v-2.493a7.756 7.756 0 0 1-4.54-1.884l-1.764 1.764a10.238 10.238 0 0 0 6.303 2.613h.001Z"/></svg>