<svg width="32" height="32" fill="none" xmlns="http://www.w3.org/2000/svg"><path d="m12.71 11.677-3.403 9.996h-2.31L3.61 11.677h2.142l1.876 5.95c.038.103.089.294.154.574.075.271.15.56.224.868.075.299.126.551.154.756.028-.205.075-.457.14-.756.075-.308.15-.597.224-.868l.154-.574 1.89-5.95h2.142Zm6.319 9.996h-5.754v-9.996h5.754v1.736h-3.64v2.198h3.388v1.736h-3.388v2.576h3.64v1.75Zm4.292-9.996c.905 0 1.652.112 2.24.336.588.215 1.026.546 1.316.994.289.439.434.994.434 1.666 0 .458-.089.859-.266 1.204a2.694 2.694 0 0 1-.686.868 4.02 4.02 0 0 1-.91.574l2.94 4.354h-2.352l-2.38-3.836h-1.134v3.836h-2.114v-9.996h2.912Zm-.154 1.736h-.644v2.702h.686c.466 0 .844-.051 1.134-.154.289-.102.499-.256.63-.462.13-.214.196-.471.196-.77 0-.317-.075-.569-.224-.756-.14-.196-.36-.336-.658-.42-.29-.093-.663-.14-1.12-.14Z" fill="#000"/></svg>