<svg width="32" height="32" fill="none" xmlns="http://www.w3.org/2000/svg"><path d="M12.377 9.05 12 14.975c-.01.173.16.308.341.269l2.11-.454c.198-.043.377.12.336.304l-.627 2.864c-.042.193.152.357.354.3l1.303-.37c.202-.056.396.109.354.302l-.997 4.498c-.062.281.34.434.507.193l.111-.16 6.178-11.497c.103-.193-.075-.412-.302-.371l-2.172.39c-.204.037-.378-.14-.32-.326l.577-1.866 5.644-1.04a.515.515 0 0 1 .537.76l-9.395 16.966a.508.508 0 0 1-.89.004L6.07 8.772a.515.515 0 0 1 .533-.763l5.775 1.042Z" fill="#000"/><path fill-rule="evenodd" clip-rule="evenodd" d="M22.798 5.606c.303-1.033-.64-1.86-1.554-1.688l-9.608 1.808a1.345 1.345 0 0 0-1.099 1.225l-.181 2.346 1.994.154.143-1.85 8.093-1.524-.916 3.242 1.925.544 1.203-4.257Z" fill="#000"/></svg>