<svg width="32" height="32" fill="none" xmlns="http://www.w3.org/2000/svg"><path d="m21.264 12.227-5.025 7.265a.433.433 0 0 1-.786-.265l.201-4.01-3.246-.689a.432.432 0 0 1-.339-.468.43.43 0 0 1 .074-.196L17.167 6.6a.432.432 0 0 1 .787.264l-.201 4.01 3.246.69a.432.432 0 0 1 .338.467.427.427 0 0 1-.073.196Z" fill="#000"/><path fill-rule="evenodd" clip-rule="evenodd" d="m11.92 19.054-4.698-4.699a1.017 1.017 0 0 0-1.439 1.439l9.496 9.495a1.013 1.013 0 0 0 .719.298h.004a1.014 1.014 0 0 0 .72-.298l9.495-9.495a1.018 1.018 0 0 0-1.439-1.439l-4.698 4.698a1.03 1.03 0 0 0-.054.05L16 23.129l-4.026-4.026a1.02 1.02 0 0 0-.053-.05Z" fill="#000"/></svg>