<svg width="32" height="32" fill="none" xmlns="http://www.w3.org/2000/svg"><path fill-rule="evenodd" clip-rule="evenodd" d="M20.6 26.906c.347.136.742.127 1.092-.042l4.53-2.19c.476-.231.778-.715.778-1.246V8.573a1.38 1.38 0 0 0-.779-1.246l-4.529-2.19a1.364 1.364 0 0 0-1.563.267l-8.67 7.951-3.778-2.881a.912.912 0 0 0-1.17.052L5.3 11.633c-.4.366-.4.997-.001 1.363L8.574 16 5.3 19.004a.925.925 0 0 0 0 1.362l1.212 1.108a.912.912 0 0 0 1.17.052l3.777-2.881 8.671 7.951c.137.138.298.242.472.31ZM14.925 16l6.58-5.02v10.04L14.923 16Z" fill="#000"/></svg>