<svg viewBox="0 0 32 32" xmlns="http://www.w3.org/2000/svg"><path d="M16.378 10.11a3.198 3.198 0 0 0-3.194-3.194c-1.857 0-2.966 1.392-2.966 2.738h1.825c0-.379.354-.913 1.14-.913a1.37 1.37 0 0 1 1.37 1.37c0 .754-.552 1.368-1.94 1.368h-4.97v1.825h4.97c2.344 0 3.765-1.433 3.765-3.194Zm0 0a3.198 3.198 0 0 0-3.194-3.194c-1.857 0-2.966 1.392-2.966 2.738h1.825c0-.379.354-.913 1.14-.913a1.37 1.37 0 0 1 1.37 1.37c0 .754-.552 1.368-1.94 1.368h-4.97v1.825h4.97c2.344 0 3.765-1.433 3.765-3.194Zm4.049 11.78a3.198 3.198 0 0 1-3.194 3.194c-1.857 0-2.966-1.392-2.966-2.738h1.825c0 .378.354.913 1.14.913a1.37 1.37 0 0 0 1.37-1.37c0-.754-.694-1.369-1.94-1.369h-5.515v-1.825h5.514c2.345 0 3.766 1.433 3.766 3.194Zm0 0a3.198 3.198 0 0 1-3.194 3.194c-1.857 0-2.966-1.392-2.966-2.738h1.825c0 .378.354.913 1.14.913a1.37 1.37 0 0 0 1.37-1.37c0-.754-.694-1.369-1.94-1.369h-5.515v-1.825h5.514c2.345 0 3.766 1.433 3.766 3.194Z"/><path d="M20.905 9.732c-2.013 0-3.433 1.531-3.433 3.545h1.616c0-1.001.727-1.728 1.817-1.728 1.09 0 1.635.727 1.635 1.728 0 1-.707 1.825-2.634 1.825H7.643v1.825h12.536c2.853 0 4.178-1.834 4.178-3.65 0-2.014-1.362-3.545-3.452-3.545Zm-10.869 8.963H7.643v1.84h2.393v-1.84Z"/></svg>